<svg width="40" height="30" viewBox="0 0 40 30" fill="none" xmlns="http://www.w3.org/2000/svg">
<path id="Vector" d="M39.1691 11.5831C38.2685 10.9582 36.2049 10.7239 34.5916 11.0363C34.4041 9.47427 33.5411 8.10762 32.0402 6.89702L31.1774 6.27219L30.5769 7.17038C29.8266 8.34193 29.4514 9.9821 29.5639 11.5442C29.6014 12.0907 29.789 13.067 30.3518 13.9262C29.8266 14.2386 28.7385 14.6291 27.3128 14.6291H0.185931L0.110951 14.9415C-0.151789 16.5034 -0.151789 21.3847 2.92486 25.1335C5.25109 27.9841 8.70295 29.4291 13.2428 29.4291C23.0729 29.4291 30.3518 24.7038 33.7662 16.152C35.1169 16.191 38.0059 16.152 39.4693 13.2231C39.5068 13.145 39.5817 12.9888 39.8443 12.4031L39.9944 12.0907L39.1691 11.5831ZM21.8723 0.570953H17.7453V4.47597H21.8723V0.570953ZM21.8723 5.257H17.7453V9.16201H21.8723V5.25684V5.257ZM16.9947 5.257H12.8677V9.16201H16.9947V5.25684V5.257ZM12.1172 5.257H7.99002V9.16201H12.1172V5.25684V5.257ZM7.2396 9.94305H3.11246V13.8481H7.23945V9.94289L7.2396 9.94305ZM12.1172 9.94305H7.99002V13.8481H12.1172V9.94289V9.94305ZM16.9947 9.94305H12.8677V13.8481H16.9947V9.94289V9.94305ZM21.8724 9.94305H17.7451V13.8481H21.8724V9.94289V9.94305ZM26.75 9.94305H22.6227V13.8481H26.75V9.94289V9.94305Z" fill="#2396ED"/>
</svg>
