<svg width="40" height="40" viewBox="0 0 40 40" fill="none" xmlns="http://www.w3.org/2000/svg">
<g id="mongodb">
<path id="Vector" d="M18.4084 5.20044L19.2753 6.82861C19.4702 7.12907 19.6813 7.39502 19.93 7.64269C20.6591 8.36271 21.3387 9.13118 21.9642 9.94284C23.433 11.8715 24.4237 14.0133 25.1312 16.3297C25.5555 17.7447 25.7859 19.1962 25.8032 20.664C25.8742 25.0521 24.3699 28.8201 21.3369 31.9516C20.8435 32.4482 20.3105 32.9037 19.7432 33.3138C19.4428 33.3138 19.3007 33.0834 19.1768 32.8712C18.9513 32.4778 18.8012 32.0458 18.7342 31.5973C18.6277 31.0664 18.5576 30.5355 18.5921 29.9874V29.7397C18.5678 29.6869 18.3028 5.32529 18.4084 5.20044Z" fill="#599636"/>
<path id="Vector_2" d="M18.4084 5.14662C18.3729 5.07556 18.3374 5.12936 18.3018 5.16387C18.3191 5.51915 18.1952 5.83585 18.0014 6.13834C17.7882 6.4388 17.506 6.66922 17.2228 6.9169C15.6495 8.27912 14.4111 9.92454 13.4193 11.7649C12.0998 14.2416 11.4197 16.896 11.2268 19.6905C11.1385 20.6985 11.5455 24.2553 11.8632 25.2815C12.7301 28.006 14.2872 30.2889 16.3042 32.2703C16.7995 32.7474 17.3294 33.1899 17.8775 33.6152C18.0369 33.6152 18.0542 33.4731 18.0907 33.3676C18.1606 33.1417 18.2138 32.911 18.2501 32.6773L18.6053 30.0239L18.4084 5.14662Z" fill="#6CAC48"/>
<path id="Vector_3" d="M19.2753 34.3918C19.3108 33.9857 19.5057 33.6487 19.7178 33.3127C19.5047 33.2244 19.3463 33.0488 19.2225 32.8529C19.1157 32.6674 19.0273 32.4719 18.9586 32.2693C18.7109 31.5262 18.6581 30.7467 18.587 29.9874V29.5276C18.4987 29.5986 18.4805 30.1995 18.4805 30.2889C18.4288 31.0913 18.3223 31.8894 18.1617 32.6773C18.1089 32.996 18.0734 33.3138 17.8775 33.597C17.8775 33.6325 17.8775 33.668 17.8948 33.7208C18.2135 34.6587 18.3008 35.6139 18.3546 36.5874V36.9426C18.3546 37.3669 18.3373 37.2776 18.6896 37.4197C18.8317 37.4725 18.99 37.4908 19.1321 37.5963C19.2387 37.5963 19.256 37.508 19.256 37.437L19.2032 36.8533V35.2251C19.1859 34.9409 19.2387 34.6587 19.2742 34.3928L19.2753 34.3918Z" fill="#C2BFBF"/>
</g>
</svg>
