<svg width="40" height="40" viewBox="0 0 40 40" fill="none" xmlns="http://www.w3.org/2000/svg">
<g id="mssql">
<path id="Vector" d="M25.2547 18.6733L16.487 21.289L8.85914 24.3648L6.72514 24.8796C6.18166 25.3519 5.6118 25.8302 4.99546 26.3146C4.3195 26.8474 3.68993 27.3318 3.20607 27.683C2.66931 28.0705 1.87404 28.7971 1.46981 29.2571C0.866707 29.9474 0.38957 30.68 0.184113 31.2432C-0.18041 32.2604 -0.00138885 33.2897 0.70107 34.2404C1.60235 35.4513 3.39835 36.6864 5.49246 37.528C6.55951 37.958 8.35544 38.5089 9.70734 38.8177C11.9539 39.3384 16.3014 39.9016 18.6937 39.9864C19.1774 40.0045 19.8269 40.0045 19.8534 39.9864C19.9065 39.956 20.2776 39.3082 20.7084 38.503C22.1797 35.7601 23.24 33.1868 23.8165 30.9889C24.1611 29.6569 24.4328 27.8828 24.6116 25.7819C24.6581 25.1945 24.6779 23.2267 24.6382 22.5606C24.5785 21.4708 24.4724 20.5868 24.3069 19.721C24.2804 19.5938 24.2737 19.4787 24.287 19.4727C24.3134 19.4546 24.3929 19.4304 25.4732 19.1457L25.2546 18.6735V18.6734H25.2547V18.6733ZM23.2533 19.7451C23.3328 19.7451 23.5448 21.6039 23.5978 22.7786C23.6111 23.0268 23.6044 23.1903 23.5912 23.1903C23.5382 23.1903 22.4712 22.6151 21.7092 22.1792C21.0465 21.7977 19.7873 21.0348 19.5885 20.8895C19.5221 20.8471 19.5287 20.8411 20.0723 20.6715C20.9933 20.3869 23.1804 19.7451 23.2533 19.7451ZM18.7866 21.0893C18.8463 21.0893 18.9986 21.1679 19.3631 21.3738C20.7283 22.1549 22.5839 23.0995 23.3792 23.4144C23.6243 23.5112 23.6508 23.4748 23.0876 23.8261C21.8814 24.5769 20.377 25.3155 18.5346 26.0603C18.2099 26.1935 17.9383 26.2964 17.9317 26.2964C17.9185 26.2964 17.9581 26.1451 18.0111 25.9634C18.4551 24.4557 18.707 22.9299 18.7203 21.7068C18.7269 21.1013 18.7269 21.1013 18.7866 21.0832C18.7733 21.0893 18.7799 21.0893 18.7866 21.0893ZM17.8654 21.4101C17.9051 21.4464 17.8786 22.8028 17.8256 23.1721C17.7063 24.0561 17.5207 24.8795 17.216 25.806C17.1431 26.0299 17.0767 26.2177 17.0636 26.2298C17.0369 26.26 16.129 25.4487 15.8308 25.1338C15.3139 24.5889 14.9097 24.0439 14.6115 23.5111C14.459 23.2387 14.2205 22.7059 14.2403 22.6877C14.3464 22.6211 17.8389 21.386 17.8654 21.4101ZM13.5312 22.9662C13.5378 22.9662 13.5444 22.9662 13.5511 22.9722C13.5643 22.9844 13.6108 23.0813 13.6506 23.1902C13.8626 23.717 14.3396 24.492 14.7506 24.9885C15.2013 25.5335 15.7912 26.1147 16.2814 26.4961C16.4406 26.6172 16.5863 26.7322 16.6061 26.7504C16.646 26.7868 16.6592 26.7807 15.5789 27.1561C14.3265 27.5921 12.9612 28.028 11.3972 28.4881C11.0236 28.5982 10.6503 28.7092 10.2774 28.8212C10.2176 28.8394 10.2376 28.8091 10.4099 28.5609C11.1852 27.4528 12.3648 25.2792 13.0276 23.7412C13.1402 23.4748 13.2529 23.2084 13.2728 23.1479C13.2993 23.063 13.3324 23.0328 13.4185 22.9904C13.4649 22.9784 13.5114 22.9662 13.5312 22.9662ZM12.2059 23.4688C12.2257 23.4809 11.8877 24.1287 11.5564 24.7221C10.9135 25.8664 10.211 26.9927 9.26999 28.3611C9.11095 28.5972 8.95858 28.8152 8.93865 28.8394C8.90556 28.8818 8.89223 28.8697 8.78622 28.682C8.5609 28.2763 8.37528 27.7555 8.2759 27.2772C8.17645 26.8049 8.19638 25.9815 8.30908 25.4729C8.39514 25.0976 8.3886 25.1036 8.5874 25.0128C9.43566 24.6192 12.1794 23.4446 12.2059 23.4688ZM23.6377 23.8927V24.1469C23.6377 25.4972 23.4786 27.3499 23.2466 28.7002C23.2068 28.9363 23.1736 29.13 23.1671 29.1361C23.1671 29.1361 22.9749 29.0877 22.7496 29.0271C21.7555 28.7425 20.6753 28.3247 19.7011 27.8344C19.0581 27.5134 18.1238 26.9866 18.1503 26.9624C18.1569 26.9564 18.4353 26.8232 18.7599 26.6657C20.059 26.0482 21.3048 25.3821 22.3851 24.7222C22.7893 24.4739 23.3989 24.0743 23.5316 23.9653L23.6377 23.8927ZM7.20228 25.6848C7.22878 25.6848 7.22214 25.7332 7.18239 25.9512C7.15586 26.1087 7.12276 26.3993 7.10959 26.599C7.05645 27.483 7.2156 28.137 7.69274 29.0331C7.82528 29.2813 7.93139 29.4872 7.92466 29.4932C7.87824 29.5296 3.49116 30.7043 2.11262 31.0494C1.70177 31.1522 1.34397 31.2431 1.31732 31.2491C1.27102 31.2612 1.26436 31.2552 1.28422 31.1522C1.43663 30.2622 2.1789 29.0997 3.2127 28.1187C3.90195 27.4649 4.45204 27.0834 5.39308 26.5929C6.06904 26.2418 7.1095 25.7151 7.18902 25.6908C7.18908 25.6848 7.19568 25.6848 7.20228 25.6848ZM17.5407 27.3741C17.5473 27.368 17.7063 27.4468 17.8985 27.5497C19.3167 28.3005 21.2916 28.9968 22.9748 29.354L23.1273 29.3843L22.9152 29.4932C22.0338 29.9413 19.1378 31.0432 16.1755 32.0545C15.7446 32.1997 15.3206 32.3451 15.2409 32.3753C15.1614 32.4056 15.0885 32.4238 15.0885 32.4177C15.0885 32.4116 15.2079 32.1997 15.3602 31.9394C16.1886 30.5226 17.0237 28.797 17.4478 27.5981C17.5009 27.4831 17.5339 27.3802 17.5407 27.3741ZM16.487 27.689C16.4937 27.6951 16.4406 27.8222 16.3743 27.9675C15.7978 29.245 15.0422 30.6377 14.0746 32.1998C13.8295 32.5995 13.624 32.9204 13.6173 32.9204C13.6108 32.9204 13.4119 32.8113 13.1733 32.6782C11.7683 31.891 10.5224 30.9223 9.70737 29.9838L9.58803 29.8505L10.191 29.6992C12.3515 29.1603 14.1872 28.5791 16.0097 27.8646C16.2682 27.7677 16.4804 27.689 16.487 27.689ZM23.0346 29.7779C23.0346 29.7779 23.0412 29.7839 23.0346 29.7779C23.0412 29.9171 22.7032 31.1644 22.4248 32.0665C22.1929 32.8234 21.994 33.4168 21.6296 34.4642C21.4705 34.9245 21.3315 35.3058 21.3247 35.3058C21.3181 35.3058 21.2784 35.2998 21.2386 35.2878C19.2704 34.9607 17.5075 34.5066 15.8507 33.9012C15.3868 33.7316 14.7241 33.4591 14.6844 33.4289C14.6712 33.4166 15.0688 33.2472 15.5724 33.0474C18.5878 31.8425 21.7158 30.4741 22.7893 29.8868C22.9152 29.8142 23.0147 29.7779 23.0346 29.7779ZM7.91806 30.2502C7.93133 30.2622 7.08967 31.3703 5.90998 32.8779C5.49913 33.4047 5.02199 34.0223 4.84309 34.2523C4.66413 34.4824 4.39245 34.8457 4.24001 35.0637L3.96155 35.4573L3.66331 35.2272C3.31205 34.9607 2.70243 34.3916 2.43072 34.0768C1.86074 33.429 1.47645 32.7448 1.32401 32.1212C1.25109 31.8305 1.25109 31.6851 1.31729 31.6671C1.41667 31.6428 3.18614 31.2614 4.84303 30.9101C5.7642 30.7164 6.8311 30.4864 7.21548 30.4016C7.5999 30.3167 7.91146 30.2502 7.91806 30.2502ZM8.7663 30.5469L8.97829 30.7648C9.93272 31.7396 10.9069 32.4603 12.0865 33.0898C12.2986 33.1989 12.4576 33.2957 12.4443 33.3019C12.398 33.3321 8.34875 34.6459 6.4733 35.2393C5.41964 35.5783 4.55142 35.8508 4.54488 35.8508C4.53828 35.8508 4.4786 35.8145 4.41222 35.7721L4.293 35.6934L4.48517 35.4391C5.10808 34.6156 5.89021 33.7135 7.59336 31.8365L8.7663 30.5469ZM14.0548 34.0041C14.0614 33.9981 14.353 34.0949 14.7108 34.2161C15.5724 34.5128 16.2549 34.7004 17.1695 34.9124C18.2962 35.1727 19.9264 35.4271 20.8874 35.4997C21.0332 35.5117 21.1127 35.5239 21.0862 35.5421C21.0397 35.5663 20.0657 35.863 19.3499 36.0689C18.2099 36.3958 14.7307 37.3342 11.8944 38.079C11.3708 38.2183 10.9201 38.3333 10.8936 38.3393C10.8274 38.3515 10.6087 38.2969 10.6087 38.2727C10.6087 38.2607 10.7677 38.073 10.9599 37.8671C11.9142 36.8257 12.8619 35.6632 13.6506 34.5612C13.8692 34.2584 14.0548 34.0101 14.0548 34.0041ZM12.8884 34.0344C12.895 34.0405 12.4245 34.7307 11.6028 35.9174C11.2515 36.4199 10.8605 36.9891 10.7213 37.1889C10.5887 37.3827 10.3899 37.6855 10.2773 37.8549L10.0851 38.1638L9.98571 38.1395C9.74707 38.079 8.07044 37.5401 7.6264 37.3766C7.07631 37.1768 6.50639 36.9346 6.08222 36.7288C5.55212 36.4684 4.88945 36.0809 4.94241 36.0688C4.95564 36.0628 5.86359 35.8387 6.957 35.5663C9.85974 34.8457 11.4701 34.4279 12.5239 34.1252C12.7161 34.0707 12.8818 34.0283 12.8884 34.0344ZM21.1392 35.8023H21.1458C21.1723 35.863 20.0988 38.5876 19.7076 39.4473C19.6216 39.6411 19.5885 39.6896 19.5421 39.6834C19.4294 39.6775 17.8721 39.4777 16.9243 39.3505C15.2742 39.1204 12.504 38.6783 11.8082 38.5331L11.6492 38.5029L12.6365 38.2969C14.7572 37.8609 15.7778 37.6248 16.8116 37.3342C18.1172 36.9709 19.4096 36.5168 20.715 35.9598C20.9205 35.875 21.0928 35.8084 21.1392 35.8023Z" fill="url(#paint0_linear_403_199)"/>
<path id="Vector_2" d="M16.2152 0.000310119C16.0694 -0.0177547 13.7167 0.757247 12.1992 1.32027C10.1513 2.08327 8.5609 2.80988 7.58004 3.43945C7.21561 3.67569 6.75824 4.09341 6.68545 4.25686C6.65895 4.31742 6.64563 4.39007 6.64563 4.46272L7.53371 5.23169L9.64772 5.84928L14.6778 6.67275L20.4301 7.57493L20.4897 7.12082C20.4699 7.12082 20.4566 7.11479 20.4369 7.11479L19.6812 7.00576L19.5289 6.75754C18.7468 5.49811 17.8853 3.93596 17.3817 2.88242C16.9907 2.06501 16.6196 1.12055 16.4141 0.442382C16.3014 0.03066 16.2882 0.00645267 16.2154 0.000421741V0.000282H16.2152V0.000310119ZM16.1091 0.3092H16.1159C16.1224 0.315175 16.1489 0.484823 16.1755 0.684513C16.288 1.53231 16.4937 2.34958 16.8183 3.23361C17.0635 3.89967 17.0635 3.86337 16.7786 3.78461C16.1026 3.61512 13.074 3.13678 10.8804 2.85827C10.5292 2.81586 10.2309 2.7735 10.2309 2.76747C10.2044 2.74326 11.8148 1.97424 12.5239 1.67157C13.4318 1.29003 15.9236 0.339438 16.1091 0.3092ZM9.72054 3.02172L9.97911 3.10035C11.384 3.53636 14.9162 4.15397 16.8647 4.29927C17.0833 4.31745 17.2689 4.33565 17.2754 4.33565C17.282 4.34168 17.0966 4.43251 16.858 4.5354C15.917 4.9653 14.8831 5.49208 14.1674 5.89777C13.9554 6.01881 13.7631 6.11575 13.7367 6.11575C13.7101 6.11575 13.571 6.09152 13.4252 6.07334L13.1601 6.03696L12.4975 5.44356C11.3311 4.40825 10.4165 3.60904 10.0653 3.30623L9.72054 3.02172ZM9.45556 3.20938L10.39 4.27506C10.9002 4.86238 11.4171 5.43755 11.5299 5.56465C11.6425 5.69189 11.7353 5.79486 11.7287 5.80089C11.7022 5.81904 10.3768 5.58285 9.67425 5.43761C8.95189 5.28619 8.65369 5.21354 8.20967 5.08645L7.84515 4.97742V4.89259C7.85175 4.4869 8.41513 3.88146 9.36941 3.26393L9.45556 3.20938ZM17.3948 4.66255C17.4214 4.66255 17.4544 4.71703 17.534 4.8805C17.7593 5.33458 18.4619 6.55771 18.634 6.79381C18.6872 6.87261 18.7798 6.87864 17.8455 6.73937C15.599 6.40627 14.8765 6.29741 14.8765 6.28529C14.8765 6.27926 14.9428 6.23685 15.029 6.19443C15.7248 5.84333 16.4273 5.39523 17.0503 4.91688C17.2027 4.80182 17.3419 4.69285 17.3683 4.67464C17.3749 4.66255 17.3882 4.65652 17.3948 4.66255Z" fill="url(#paint1_linear_403_199)"/>
<path id="Vector_3" d="M6.73172 4.17209C6.73172 4.17209 6.58601 4.38409 6.72515 4.69896C6.81139 4.89264 7.06317 5.12874 7.34809 5.37099C7.34809 5.37099 10.2972 7.99874 10.655 8.37419C12.2853 10.0937 12.9944 11.7891 13.0607 14.1262C13.1004 15.6278 12.7889 16.9478 12.0136 18.4797C10.6351 21.2286 7.72575 24.262 3.2392 27.6285L3.89539 27.4287C4.3195 27.138 4.89608 26.8293 6.24798 26.1511C9.36931 24.5889 12.8817 23.1539 17.1894 21.6766C23.3923 19.5452 33.5916 17.0506 39.3968 16.2394L40 16.1545L39.9072 16.0213C39.3771 15.2705 39.0125 14.8043 38.575 14.3078C37.3027 12.8668 35.7587 11.6983 33.8699 10.7295C31.272 9.40353 27.9119 8.36816 23.6574 7.59919C22.8556 7.45381 21.0927 7.17532 19.6613 6.97552C16.626 6.54573 14.6644 6.24899 12.504 5.90992C11.7287 5.78877 10.5688 5.60717 9.80006 5.45584C9.40244 5.37705 8.64039 5.2136 8.04394 5.02591C7.56681 4.85629 6.87752 4.68676 6.73172 4.17209ZM8.44163 5.68585C8.44817 5.67988 8.55418 5.71609 8.69344 5.7585C8.94526 5.83713 9.26996 5.92798 9.65444 6.02492C9.9453 6.09802 10.2369 6.16865 10.5292 6.23682C10.9268 6.32759 11.2581 6.41238 11.2647 6.41238C11.3112 6.45479 11.9806 8.41035 12.2059 9.16117C12.2919 9.44583 12.3583 9.68796 12.3517 9.68796C12.3449 9.6941 12.2721 9.5911 12.186 9.45186C11.4106 8.20454 10.1845 6.93911 8.7663 5.92187C8.58083 5.80089 8.44163 5.69188 8.44163 5.68585ZM11.7022 6.5093C11.7353 6.5093 11.8811 6.52747 12.06 6.56377C13.1866 6.79384 15.2079 7.14503 16.5002 7.34486C16.7189 7.3751 16.8912 7.41151 16.8912 7.42354C16.8912 7.43571 16.8116 7.47801 16.7122 7.52651C16.4936 7.6294 15.6121 8.10769 15.3206 8.28937C14.5849 8.73742 13.9223 9.22179 13.4451 9.65772C13.2529 9.83334 13.0872 9.97864 13.0872 9.97864C13.0872 9.97864 13.0475 9.87575 13.0142 9.74852C12.7758 8.9069 12.2787 7.65958 11.828 6.78169C11.7551 6.64248 11.6954 6.5153 11.6954 6.50324C11.6954 6.51533 11.6954 6.5093 11.7022 6.5093ZM17.4412 7.50834C17.481 7.5204 17.5473 7.72629 17.6798 8.18036C17.925 9.05837 18.0377 10.0392 17.9979 10.9535C17.9846 11.2078 17.9714 11.4439 17.9581 11.4743L17.9383 11.5347L17.5937 11.4318C16.8845 11.226 15.7315 10.9171 14.7441 10.6629C14.1807 10.5236 13.7235 10.3965 13.7235 10.3844C13.7235 10.348 14.5453 9.59721 14.8965 9.31267C15.5657 8.77371 17.3815 7.49013 17.4412 7.50834ZM17.8985 7.56881C17.9184 7.55075 20.6422 7.98053 21.8815 8.19854C22.8027 8.36199 24.1413 8.61632 24.2208 8.64665C24.2606 8.65871 24.1214 8.73136 23.6773 8.91298C21.9278 9.63357 20.6288 10.2813 19.3367 11.0685C18.9987 11.2744 18.7137 11.4439 18.7071 11.4439C18.7005 11.4439 18.6938 11.2684 18.6938 11.0564C18.6938 9.90605 18.442 8.7435 17.978 7.76264C17.9316 7.66575 17.8919 7.57495 17.8985 7.56881ZM24.9431 8.84039C24.9631 8.85854 24.8769 9.34902 24.7973 9.6396C24.5588 10.5418 23.916 11.88 23.1274 13.1393C22.9881 13.3633 22.8623 13.545 22.8489 13.551C22.8358 13.557 22.6568 13.4662 22.4513 13.3572C21.6826 12.9455 20.8079 12.558 19.8535 12.1947C19.5885 12.0918 19.3565 12.007 19.3499 11.995C19.3034 11.9586 21.4374 10.6689 22.564 10.0513C23.4587 9.55486 24.9166 8.81612 24.9431 8.84039ZM25.4468 8.91301C25.5065 8.91301 26.7126 9.21579 27.3421 9.38532C28.8995 9.80919 30.6888 10.4086 31.8552 10.8929L32.3389 11.0928L32.001 11.1654C29.1514 11.7648 26.7126 12.4551 24.3599 13.327C24.1677 13.3997 23.9954 13.4602 23.9823 13.4602C23.969 13.4602 24.0353 13.321 24.1214 13.1514C24.8305 11.777 25.2878 10.342 25.4003 9.11884C25.4071 9.00378 25.4268 8.91301 25.4468 8.91301ZM13.4385 11.4318C13.4583 11.4136 14.3795 11.6135 14.8766 11.7405C15.632 11.9344 17.2357 12.4247 17.2357 12.4611C17.2357 12.4672 17.0569 12.6064 16.8449 12.776C15.9767 13.436 15.1416 14.1322 14.1409 15.0162C13.8426 15.2767 13.5909 15.4886 13.5777 15.4886C13.5644 15.4886 13.5578 15.4522 13.5644 15.4037C13.7168 14.3865 13.6837 13.0787 13.4716 11.7527C13.4517 11.5831 13.4318 11.4379 13.4385 11.4318ZM32.7964 11.45C32.8095 11.4621 32.3722 12.0918 32.0938 12.449C31.6963 12.9697 31.1129 13.66 29.7941 15.1737C29.0984 15.9729 28.3163 16.8751 28.0579 17.1778C27.7927 17.4806 27.5741 17.7348 27.5674 17.7348C27.5608 17.7348 27.4748 17.6259 27.3819 17.4927C26.6397 16.4755 25.7516 15.5854 24.6979 14.7862C24.4991 14.6348 24.2805 14.4713 24.2076 14.4228C24.1346 14.3744 24.0749 14.326 24.0749 14.32C24.0749 14.3018 25.2015 13.8597 26.0565 13.545C27.5543 12.9879 29.5952 12.3219 31.1262 11.892C31.9281 11.6619 32.783 11.4379 32.7964 11.45ZM33.3066 11.5711C33.333 11.5651 33.4922 11.6377 33.6844 11.7405C35.2948 12.5822 36.8719 13.666 38.118 14.7801C38.4692 15.095 39.3373 15.9185 39.324 15.9245C39.324 15.9245 39.0191 15.9487 38.6613 15.9729C35.8713 16.1667 32.2994 16.7055 28.8664 17.4623C28.6345 17.5107 28.4291 17.5531 28.4158 17.5531C28.4027 17.5531 28.661 17.317 28.9858 17.0325C31.0004 15.2584 31.9217 14.1383 33.0084 12.1402C33.1608 11.8436 33.2934 11.5893 33.3066 11.5711C33.3 11.5711 33.3 11.5711 33.3066 11.5711ZM18.5479 12.9516C18.6408 12.9697 19.5023 13.3392 20.1517 13.6358C20.7482 13.9082 21.6429 14.3442 21.6893 14.3805C21.6959 14.3865 21.3777 14.5379 20.9869 14.7135C19.7409 15.2826 18.6739 15.8215 17.5605 16.4391C17.2424 16.6147 16.9774 16.7601 16.9708 16.7601C16.9442 16.7601 16.9508 16.7357 17.1298 16.4391C17.7263 15.4462 18.2033 14.2594 18.4751 13.1029C18.5016 13.0121 18.5281 12.9516 18.5479 12.9516ZM17.6864 13.0969C17.7063 13.1151 17.481 13.8598 17.3419 14.2655C17.0701 15.0344 16.6128 15.9971 16.1689 16.7237C16.0627 16.8932 15.9037 17.1414 15.8176 17.2807L15.6519 17.5229L15.2808 17.196C14.8501 16.8145 14.4988 16.5784 14.0482 16.3664C13.8692 16.2817 13.7301 16.209 13.7301 16.1969C13.7301 16.1485 14.8633 15.21 15.7314 14.5319C16.3544 14.0414 17.6666 13.0787 17.6864 13.0969ZM22.9551 15.0768L23.2799 15.2705C24.0219 15.7126 24.8967 16.2999 25.5662 16.8145C25.9438 17.099 26.6728 17.6985 26.8187 17.8438L26.8981 17.9226L26.3614 18.0618C23.3261 18.8307 20.9801 19.5149 18.2431 20.4353C17.9383 20.5382 17.6798 20.623 17.6599 20.623C17.6202 20.623 17.587 20.6532 18.2697 20.078C20.0193 18.6068 21.5699 16.984 22.7231 15.4037L22.9551 15.0768ZM21.57 15.3917C21.5832 15.4037 20.6753 16.5723 20.1318 17.2323C19.4824 18.0194 18.3292 19.3393 17.534 20.1991C17.2027 20.5564 16.9178 20.853 16.9045 20.8591C16.8845 20.8651 16.8779 20.7743 16.8779 20.6351C16.8779 19.9024 16.6725 19.1213 16.3146 18.4553C16.1622 18.1768 16.1357 18.1102 16.1689 18.08C16.2948 17.977 18.2233 16.9719 19.4426 16.3725C20.2644 15.9729 21.5499 15.3796 21.57 15.3917ZM13.1932 17.2687C13.2131 17.2687 13.3656 17.3413 13.5379 17.4261C13.962 17.638 14.3398 17.8741 14.6777 18.1285C14.6909 18.1405 14.5187 18.2677 14.2934 18.419C13.6638 18.8307 12.7095 19.4908 12.1529 19.8964C11.5696 20.3203 11.5498 20.3324 11.616 20.2416C12.0535 19.63 12.272 19.2849 12.5041 18.8429C12.7095 18.4494 12.9149 17.9832 13.0607 17.5775C13.1137 17.4019 13.18 17.2687 13.1932 17.2687ZM15.4266 18.8671C15.4597 18.8611 15.4996 18.9155 15.6784 19.1578C16.0561 19.6723 16.3478 20.3627 16.4208 20.9197L16.4339 21.0408L15.5261 21.3618C13.9023 21.9369 12.4047 22.5061 11.3906 22.9299C11.1057 23.051 10.6087 23.2689 10.284 23.4143C9.95922 23.5656 9.69414 23.6807 9.69414 23.6747C9.69414 23.6686 9.89953 23.5294 10.1514 23.3598C12.133 22.0459 13.8494 20.6048 15.135 19.1638C15.2742 19.0124 15.4002 18.8731 15.4133 18.8671L15.4266 18.8671ZM14.3994 19.0972C14.426 19.1214 13.6705 19.9024 13.1536 20.3808C11.8745 21.5736 10.6087 22.5061 9.03804 23.4143C8.83924 23.5294 8.66035 23.6322 8.64042 23.6444C8.594 23.6686 8.65362 23.608 9.34288 22.9238C9.78032 22.4939 10.1116 22.1307 10.4894 21.6827C10.7412 21.386 10.7876 21.3436 11.1522 21.1074C12.1264 20.4656 14.3729 19.0729 14.3994 19.0972Z" fill="url(#paint2_radial_403_199)"/>
</g>
<defs>
<linearGradient id="paint0_linear_403_199" x1="6.5963" y1="36.0432" x2="9.61218" y2="34.0927" gradientUnits="userSpaceOnUse">
<stop stop-color="#909CA9"/>
<stop offset="1" stop-color="#EDEDEE"/>
</linearGradient>
<linearGradient id="paint1_linear_403_199" x1="6.66888" y1="3.77578" x2="9.21987" y2="3.77578" gradientUnits="userSpaceOnUse">
<stop stop-color="#939FAB"/>
<stop offset="1" stop-color="#DCDEE1"/>
</linearGradient>
<radialGradient id="paint2_radial_403_199" cx="0" cy="0" r="1" gradientUnits="userSpaceOnUse" gradientTransform="translate(19.5412 14.465) rotate(-172.186) scale(3.28293 6.02225)">
<stop stop-color="#EE352C"/>
<stop offset="1" stop-color="#A91D22"/>
</radialGradient>
</defs>
</svg>
