<svg width="40" height="40" viewBox="0 0 40 40" fill="none" xmlns="http://www.w3.org/2000/svg">
<g id="nestjs">
<path id="Vector" fill-rule="evenodd" clip-rule="evenodd" d="M23.1087 2.5C22.8685 2.50336 22.6304 2.54557 22.4037 2.625C24.4225 3.9525 22.0412 5.875 23.1537 7.5C23.0771 6.95342 23.164 6.39639 23.4036 5.89918C23.6432 5.40197 24.0247 4.98687 24.5 4.70625C24.8562 4.41 25.085 4.30375 25.0087 3.81375C24.885 3.01125 23.815 2.5 23.1087 2.5ZM25.9837 3.0175C25.705 4.42125 25.3587 4.4725 24.33 5.37625C23.9287 5.69258 23.6456 6.13471 23.5261 6.63149C23.4066 7.12827 23.4577 7.6508 23.6712 8.115C19.4212 6.465 13.9737 5.4675 9.97998 8.3225C8.54373 9.34875 7.66748 10.8225 5.89623 11.4237C4.75123 11.8162 3.62623 11.7 2.90873 12.835C2.64632 13.1627 2.50924 13.5732 2.52207 13.9929C2.53489 14.4125 2.69679 14.8139 2.97873 15.125C3.19248 15.3438 3.60373 15.4837 3.77373 15.7062C3.87248 15.8312 3.86998 15.9562 3.96373 16.1225C4.12941 16.5099 4.36885 16.8615 4.66873 17.1575C4.85248 17.3088 5.48373 17.4563 5.59123 17.6175C5.72623 17.8187 5.37623 18.6175 5.66998 18.7425C5.86748 18.8337 6.44623 17.8125 6.50248 17.7225C6.38748 18.5263 6.23623 19.9525 7.13998 18.765C7.56873 18.2013 7.59498 18.015 8.31623 17.89C8.77778 17.8098 9.24429 17.7614 9.71248 17.745C12.3871 17.6514 14.9957 18.5873 17.0008 20.3599C19.006 22.1325 20.2548 24.6066 20.49 27.2725C20.355 26.6475 19.5387 25.6475 18.7787 25.885C18.455 25.985 18.335 26.5437 18.1225 26.8675C17.8538 27.278 17.5228 27.6441 17.1412 27.9525C17.2058 27.3465 17.1754 26.7341 17.0512 26.1375C16.8237 27.0725 16.3675 28.6238 15.2187 28.3725C14.836 28.3141 14.4775 28.1493 14.184 27.8969C13.8905 27.6444 13.6738 27.3146 13.5587 26.945C13.41 25.995 14.4137 24.8812 12.8 24.8025C9.56248 24.6437 10.3112 29.405 12.2225 30.6462C11.7832 30.6948 11.3548 30.8143 10.9537 31C12.1678 31.7051 13.5358 32.1028 14.9386 32.1586C16.3415 32.2143 17.7367 31.9264 19.0029 31.32C20.2691 30.7135 21.368 29.8067 22.2038 28.6787C23.0396 27.5506 23.5872 26.2354 23.7987 24.8475C24.0769 26.1186 24.0705 27.4354 23.78 28.7037C23.6247 29.3777 23.3923 30.0316 23.0875 30.6525C22.6743 31.4911 22.1252 32.2556 21.4625 32.915C21.07 33.3038 20.35 33.695 20.1025 34.0913C21.6174 33.8904 23.0978 33.4833 24.5025 32.8813C23.0484 34.8729 21.112 36.4623 18.875 37.5C21.2735 37.3303 23.592 36.5663 25.6214 35.2768C27.6509 33.9873 29.3275 32.213 30.5 30.1138C30.1263 32.2132 29.2963 34.2051 28.0687 35.9487C29.7199 34.8434 31.1247 33.4085 32.1948 31.7343C33.265 30.0601 33.9775 28.1827 34.2875 26.22C34.5953 27.6567 34.6834 29.1318 34.5487 30.595C35.9051 28.7103 36.8214 26.5453 37.23 24.2595C37.6387 21.9738 37.5293 19.6254 36.91 17.3875C36.4363 15.6478 35.7259 13.9814 34.7987 12.435C34.4407 11.8325 34.0488 11.2507 33.625 10.6925C33.4587 10.4762 32.57 9.685 32.57 9.4425C32.5625 9.46667 32.5562 9.46667 32.5512 9.4425C32.5512 13.5025 28.1762 16.1088 24.5125 15.0212C25.9056 14.9132 27.2223 14.3414 28.2524 13.3973C29.2824 12.4531 29.9664 11.191 30.195 9.8125C30.3974 8.36632 30.087 6.8949 29.3178 5.65367C28.5485 4.41243 27.3689 3.47975 25.9837 3.0175Z" fill="#E0234E"/>
</g>
</svg>
