<svg width="40" height="40" viewBox="0 0 40 40" fill="none" xmlns="http://www.w3.org/2000/svg">
<g id="pgsql">
<path id="Vector" d="M36.8837 23.4662C36.7782 23.159 36.5879 22.8879 36.3349 22.6842C36.0819 22.4805 35.7764 22.3525 35.4537 22.315C35.0725 22.2692 34.6862 22.2907 34.3125 22.3787C33.7344 22.5064 33.1464 22.5838 32.555 22.61C34.1365 19.9418 35.3445 17.0691 36.145 14.0725C37.3362 9.46125 36.7 7.36125 35.9562 6.41C34.9686 5.16043 33.7045 4.15699 32.2635 3.47854C30.8224 2.80009 29.2436 2.46513 27.6512 2.5C26.1904 2.48631 24.7357 2.69021 23.335 3.105C22.5007 2.96196 21.6564 2.88505 20.81 2.875C19.2715 2.81658 17.7476 3.19214 16.4125 3.95875C15.3999 3.61639 14.3616 3.35556 13.3075 3.17875C12.0786 2.88395 10.8037 2.83422 9.55567 3.0324C8.3076 3.23059 7.11082 3.67279 6.03374 4.33375C3.86624 5.86375 2.86124 8.52375 3.04749 12.24C3.38096 15.0124 3.96929 17.7481 4.80499 20.4125C5.28628 22.0768 5.91979 23.6932 6.69749 25.2412C7.27183 26.6535 8.36367 27.7932 9.74999 28.4275C10.2581 28.5949 10.8018 28.6234 11.3247 28.51C11.8476 28.3966 12.3306 28.1454 12.7237 27.7825C12.9022 27.9938 13.1131 28.1752 13.3487 28.32C13.7139 28.5466 14.1119 28.7153 14.5287 28.82C15.893 29.2 17.3453 29.112 18.6537 28.57C18.6612 28.7837 18.6675 28.9887 18.6712 29.1662C18.6787 29.4525 18.6875 29.7337 18.6975 29.9975C18.6826 31.3918 18.8683 32.781 19.2487 34.1225C19.2687 34.1762 19.295 34.2562 19.3225 34.3425C19.5421 35.1636 19.9686 35.9146 20.5612 36.5237C21.2718 37.1762 22.2095 37.5248 23.1737 37.495C23.5845 37.4924 23.9938 37.4467 24.395 37.3587C25.1555 37.2633 25.8893 37.0164 26.5528 36.6328C27.2164 36.2491 27.7965 35.7364 28.2587 35.125C29.2725 33.6812 29.7662 31.5075 29.855 28.0812L29.8875 27.8037L29.9087 27.6225L30.1475 27.6437H30.2087C31.5605 27.701 32.9088 27.4674 34.1625 26.9587C34.9512 26.5925 37.48 25.2575 36.8837 23.4587" fill="black"/>
<path id="Vector_2" d="M34.6113 23.8163C30.6575 24.6313 30.3863 23.2938 30.3863 23.2938C34.56 17.1 36.305 9.23751 34.7988 7.31376C30.6913 2.06376 23.58 4.54751 23.4613 4.61126L23.4225 4.61876C22.5539 4.44444 21.6709 4.35236 20.785 4.34376C19.2911 4.2688 17.8169 4.71018 16.61 5.59376C16.61 5.59376 3.92502 0.367506 4.51502 12.1663C4.64002 14.6763 8.11252 31.1588 12.2538 26.18C13.7675 24.36 15.23 22.82 15.23 22.82C15.9666 23.3171 16.8528 23.5433 17.7375 23.46L17.8088 23.4C17.7879 23.6365 17.7975 23.8747 17.8375 24.1088C16.77 25.3013 17.0875 25.51 14.9513 25.9488C12.7938 26.3938 14.0613 27.185 14.8888 27.3925C15.768 27.6769 16.7145 27.6763 17.5934 27.3908C18.4722 27.1052 19.2384 26.5494 19.7825 25.8025L19.72 26.0525C20.1375 26.3875 20.4313 28.23 20.3825 29.9013C20.2462 31.1442 20.3308 32.4015 20.6325 33.615C20.9625 34.5113 21.29 36.5263 24.0938 35.9263C25.0908 35.8278 26.0181 35.3705 26.7033 34.6396C27.3884 33.9087 27.7848 32.9538 27.8188 31.9525C27.9438 30.41 28.21 30.6375 28.2263 29.2588L28.4438 28.6063C28.6938 26.515 28.4838 25.84 29.9263 26.1538L30.2775 26.185C31.3935 26.2319 32.507 26.0445 33.5463 25.635C35.3038 24.82 36.345 23.4575 34.6125 23.8163" fill="#336791"/>
<path id="Vector_3" d="M17.3525 13.2887C17.0658 13.2284 16.7669 13.2728 16.51 13.4137C16.4765 13.4378 16.4482 13.4684 16.4268 13.5036C16.4053 13.5388 16.3911 13.578 16.385 13.6187C16.385 13.7629 16.4369 13.9022 16.5313 14.0112C16.699 14.2416 16.9494 14.3979 17.23 14.4475C17.2673 14.4526 17.3049 14.4552 17.3425 14.455C17.5282 14.4574 17.7102 14.4027 17.8638 14.2983C18.0174 14.1939 18.1352 14.0448 18.2013 13.8712C18.245 13.5612 17.7938 13.3537 17.3563 13.2925M29.1588 13.3025C29.125 13.0587 28.6913 12.99 28.2838 13.0525C27.8763 13.115 27.475 13.295 27.5088 13.5387C27.5723 13.6917 27.68 13.8222 27.818 13.9137C27.956 14.0052 28.1182 14.0535 28.2838 14.0525C28.3185 14.0524 28.3531 14.0499 28.3875 14.045C28.6043 14.0069 28.8024 13.8984 28.9513 13.7362C29.0757 13.627 29.1517 13.4728 29.1625 13.3075" fill="white"/>
<path id="Vector_4" d="M35.9262 23.7237C35.775 23.2675 35.29 23.1212 34.4837 23.2875C32.09 23.7875 31.2337 23.4387 30.9512 23.2325C32.8468 20.3226 34.2698 17.131 35.1675 13.7762C35.5308 12.4492 35.7405 11.0849 35.7925 9.70999C35.8888 8.74828 35.6652 7.78166 35.1562 6.95999C34.2553 5.82617 33.1034 4.91705 31.7913 4.30426C30.4792 3.69147 29.0427 3.39176 27.595 3.42874C26.1079 3.40547 24.628 3.63846 23.22 4.11749C22.4147 3.91879 21.5893 3.81268 20.76 3.80124C19.2678 3.73568 17.793 4.142 16.545 4.96249C15.4341 4.55632 14.2873 4.25583 13.12 4.06499C10.8885 3.52498 8.53409 3.88654 6.56747 5.07124C4.69247 6.40124 3.81747 8.77874 3.99122 12.1375C4.31956 14.8294 4.89405 17.4855 5.70747 20.0725C7.04497 24.4537 8.49872 26.935 10.0287 27.4475C10.2265 27.5141 10.4338 27.5483 10.6425 27.5487C11.0309 27.5247 11.4087 27.4124 11.7472 27.2205C12.0857 27.0286 12.3761 26.7621 12.5962 26.4412C13.4646 25.3996 14.3625 24.3837 15.29 23.3937C15.8862 23.7164 16.5498 23.895 17.2275 23.915V23.9675C17.1108 24.1058 16.9971 24.2467 16.8862 24.39C16.4175 24.9837 16.3212 25.1075 14.8137 25.4187C14.385 25.5075 13.2462 25.7425 13.23 26.5437C13.2125 27.4187 14.5762 27.7825 14.73 27.8212C15.2401 27.9524 15.7645 28.0204 16.2912 28.0237C17.4433 28.045 18.5603 27.6277 19.4162 26.8562C19.2884 29.2351 19.4483 31.6207 19.8925 33.9612C20.0977 34.7105 20.5419 35.3724 21.1576 35.8462C21.7733 36.32 22.5268 36.5798 23.3037 36.5862C23.6891 36.585 24.0734 36.5432 24.45 36.4612C25.4783 36.3724 26.441 35.919 27.1644 35.1828C27.8878 34.4465 28.3243 33.476 28.395 32.4462C28.6162 31.1637 28.9962 28.1025 29.175 26.46C29.6267 26.5841 30.0941 26.6418 30.5625 26.6312C31.6412 26.639 32.711 26.4352 33.7112 26.0312C34.6012 25.6175 36.2112 24.605 35.915 23.7237H35.9262ZM30.0637 12.625C30.0477 13.0891 29.9993 13.5514 29.9187 14.0087C29.8258 14.5461 29.7673 15.0889 29.7437 15.6337C29.7395 16.2485 29.7813 16.8627 29.8687 17.4712C30.1387 18.7167 30.0392 20.014 29.5825 21.2037C29.4855 21.0317 29.3991 20.8538 29.3237 20.6712C29.2512 20.495 29.0925 20.2112 28.875 19.82C28.025 18.295 26.0325 14.7225 27.0525 13.265C27.3562 12.8312 28.1275 12.39 30.0625 12.625H30.0637ZM27.7175 4.41374C28.997 4.38758 30.2651 4.65868 31.422 5.20571C32.579 5.75274 33.5932 6.56077 34.385 7.56624C35.6037 9.12249 34.26 16.2062 30.3787 22.3162L30.2612 22.1675L30.2125 22.1062C30.9836 20.6492 31.2079 18.9643 30.845 17.3562C30.7614 16.7968 30.7196 16.2319 30.72 15.6662C30.7426 15.1608 30.7973 14.6573 30.8837 14.1587C30.9962 13.5432 31.0477 12.9181 31.0375 12.2925C31.0578 12.2066 31.0633 12.1178 31.0537 12.03C30.6395 10.3562 29.8186 8.81044 28.6637 7.52999C27.626 6.30717 26.3281 5.33173 24.865 4.67499C25.802 4.47961 26.758 4.38988 27.715 4.40749L27.7175 4.41374ZM11.8487 25.8175C11.065 26.76 10.5225 26.58 10.3487 26.52C9.18872 26.1325 7.84122 23.68 6.65497 19.79C5.86732 17.279 5.30674 14.7025 4.97997 12.0912C4.82997 9.09124 5.55747 6.99874 7.14247 5.87374C9.72122 4.04499 13.9625 5.13999 15.6662 5.69499C15.6412 5.71874 15.6162 5.74124 15.5925 5.76624C12.7962 8.58999 12.8625 13.415 12.87 13.71C12.87 13.8237 12.8787 13.985 12.8925 14.21C12.995 15.5541 12.961 16.9052 12.7912 18.2425C12.675 19.0082 12.7347 19.7903 12.9658 20.5295C13.1969 21.2687 13.5933 21.9456 14.125 22.5087C14.2358 22.6237 14.3516 22.7329 14.4725 22.8362C13.5693 23.8048 12.6939 24.799 11.8475 25.8175H11.8487ZM14.8362 21.83C14.4051 21.3742 14.0837 20.8261 13.8963 20.2274C13.709 19.6287 13.6606 18.9952 13.755 18.375C13.9341 16.9735 13.9706 15.5575 13.8637 14.1487C13.8571 14.0475 13.8513 13.9463 13.8462 13.845C14.8933 13.0558 16.1928 12.6766 17.5 12.7787C17.8007 12.8469 18.0728 13.007 18.2784 13.2368C18.4841 13.4666 18.613 13.7548 18.6475 14.0612C19.455 17.7975 18.7537 19.3537 18.1912 20.605C18.075 20.8625 17.965 21.105 17.8725 21.355L17.8 21.55C17.6203 22.0029 17.4667 22.4658 17.34 22.9362C16.87 22.9296 16.4063 22.8279 15.9767 22.6373C15.547 22.4468 15.1604 22.1713 14.84 21.8275L14.8362 21.83ZM14.9775 26.8675C14.7455 26.8104 14.5246 26.7154 14.3237 26.5862C14.5471 26.4908 14.7807 26.4212 15.02 26.3787C16.7925 26.0137 17.0662 25.7537 17.665 24.9975C17.8025 24.8237 17.9575 24.6225 18.1725 24.3862C18.4925 24.0275 18.64 24.0887 18.905 24.1987C19.0307 24.267 19.1409 24.3605 19.2286 24.4735C19.3164 24.5864 19.3799 24.7163 19.415 24.855C19.4499 24.9557 19.4624 25.0628 19.4516 25.1688C19.4408 25.2748 19.407 25.3772 19.3525 25.4687C18.8679 26.1379 18.1822 26.6346 17.3953 26.8865C16.6085 27.1383 15.7618 27.1321 14.9787 26.8687L14.9775 26.8675ZM24.2575 35.5C23.9067 35.622 23.5341 35.6686 23.164 35.6368C22.794 35.605 22.4348 35.4955 22.11 35.3155C21.7851 35.1355 21.5019 34.889 21.2787 34.5921C21.0556 34.2952 20.8976 33.9546 20.815 33.5925C20.3748 30.7596 20.249 27.8867 20.44 25.0262C20.4412 24.9738 20.4341 24.9214 20.4187 24.8712C20.4056 24.7741 20.3856 24.678 20.3587 24.5837C20.2847 24.3026 20.1498 24.0411 19.9636 23.8177C19.7774 23.5944 19.5445 23.4147 19.2812 23.2912C18.9743 23.1391 18.625 23.095 18.29 23.1662C18.4084 22.7327 18.5511 22.3062 18.7175 21.8887L18.79 21.6925C18.8725 21.4712 18.975 21.2425 19.0837 21C19.6725 19.6912 20.48 17.8975 19.6037 13.8475C19.5483 13.503 19.4228 13.1735 19.2351 12.8793C19.0475 12.5852 18.8015 12.3326 18.5125 12.1371C18.2234 11.9416 17.8974 11.8074 17.5545 11.7428C17.2116 11.6781 16.8591 11.6844 16.5187 11.7612C15.6954 11.868 14.8971 12.1181 14.16 12.5C14.0625 12.55 13.9725 12.5975 13.89 12.6437C13.9845 10.3724 14.8274 8.19615 16.2875 6.45374C16.8739 5.87984 17.5738 5.43483 18.3423 5.14724C19.1108 4.85966 19.9308 4.73584 20.75 4.78374C22.1338 4.79575 23.4981 5.11127 24.7467 5.70802C25.9953 6.30478 27.0977 7.16824 27.9762 8.23749C28.8336 9.23865 29.5035 10.3862 29.9537 11.625C28.125 11.4387 26.8812 11.8 26.2512 12.7012C24.8762 14.6612 27.0012 18.4662 28.0212 20.295C28.2087 20.63 28.37 20.92 28.42 21.045C28.6893 21.6738 29.0522 22.2583 29.4962 22.7787C29.5925 22.9037 29.6862 23.015 29.7562 23.1175C29.2025 23.2775 28.2075 23.6462 28.2987 25.4925C28.2262 26.4175 27.7062 30.7487 27.4412 32.28C27.0925 34.3012 26.3487 35.055 24.2562 35.5037L24.2575 35.5ZM33.31 25.14C32.5404 25.4453 31.7237 25.6145 30.8962 25.64C30.3457 25.7211 29.7834 25.6488 29.2712 25.4312C29.215 24.2825 29.6462 24.1625 30.0962 24.035C30.1675 24.015 30.2362 23.995 30.3037 23.9725C30.3478 24.0081 30.3937 24.0415 30.4412 24.0725C31.24 24.6 32.6662 24.6562 34.6787 24.2412H34.7012C34.2852 24.6111 33.8147 24.9147 33.3062 25.1412L33.31 25.14Z" fill="white"/>
</g>
</svg>
