<svg width="25" height="25" viewBox="0 0 25 25" fill="none" xmlns="http://www.w3.org/2000/svg">
<g id="outlook">
<path id="Vector" d="M15.2219 6.20078V10.4797L16.7188 11.4211C16.7728 11.433 16.8288 11.433 16.8829 11.4211L23.3188 7.08203C23.3141 6.87144 23.2371 6.66889 23.1006 6.50841C22.9642 6.34793 22.7767 6.2393 22.5696 6.20078H15.2219Z" fill="white"/>
<path id="Vector_2" d="M15.2219 12.0758L16.5867 13.0133C16.6506 13.0522 16.724 13.0728 16.7989 13.0728C16.8737 13.0728 16.9471 13.0522 17.011 13.0133C16.7766 13.1547 23.318 8.81171 23.318 8.81171V16.6758C23.3351 16.8351 23.3171 16.9963 23.2654 17.148C23.2136 17.2996 23.1294 17.4382 23.0185 17.5539C22.9076 17.6696 22.7728 17.7597 22.6234 17.8179C22.4741 17.876 22.3139 17.9009 22.1539 17.8906H15.2211V12.0758H15.2219ZM8.15627 10.1031C7.9295 10.102 7.70666 10.1623 7.51135 10.2776C7.31605 10.3928 7.15556 10.5588 7.0469 10.7578C6.75011 11.2854 6.60771 11.8859 6.63596 12.4906C6.60512 13.0941 6.74772 13.6938 7.0469 14.2187C7.15511 14.4096 7.31164 14.5686 7.50077 14.6798C7.68991 14.791 7.90497 14.8504 8.12436 14.8522C8.34375 14.8539 8.55973 14.7979 8.7506 14.6897C8.94148 14.5815 9.10052 14.425 9.21174 14.2359C9.50766 13.7134 9.64731 13.1168 9.61409 12.5172C9.64797 11.8987 9.51294 11.2827 9.22346 10.7351C9.12001 10.5426 8.96593 10.3819 8.77786 10.2706C8.58978 10.1592 8.37485 10.1013 8.15627 10.1031Z" fill="white"/>
<path id="Vector_3" d="M1.68201 4.02734V20.7672L14.4164 23.4375V1.5625L1.68201 4.02734ZM10.2039 15.2273C9.96566 15.5632 9.64891 15.8356 9.28125 16.021C8.91358 16.2063 8.50616 16.2989 8.09451 16.2906C7.69322 16.2978 7.29614 16.2079 6.93705 16.0286C6.57795 15.8493 6.26747 15.586 6.03201 15.2609C5.47356 14.4813 5.1942 13.5361 5.23904 12.5781C5.19153 11.5732 5.47594 10.5805 6.04841 9.75313C6.28964 9.41088 6.61136 9.13324 6.98521 8.94468C7.35906 8.75612 7.77356 8.66244 8.19216 8.67188C8.59055 8.66388 8.98481 8.7538 9.34033 8.93374C9.69585 9.11368 10.0018 9.37814 10.2312 9.70391C10.7841 10.5005 11.0587 11.4572 11.0125 12.4258C11.0612 13.4235 10.7767 14.409 10.2039 15.2273Z" fill="white"/>
</g>
</svg>
