<svg width="200" height="253" viewBox="0 0 200 253" fill="none" xmlns="http://www.w3.org/2000/svg">
<g id="&#208;&#161;&#208;&#187;&#208;&#190;&#208;&#185; 2">
<g id="&#208;&#161;&#208;&#187;&#208;&#190;&#208;&#185; 1">
<path id="Vector" opacity="0.4" d="M10.771 240.936L0 234.774L16.1162 225.551L26.8822 231.708L10.771 240.936Z" fill="#D6D8E5"/>
<path id="Vector_2" d="M10.9929 228.516L2.07251 223.367L10.9929 218.219L19.9082 223.367L10.9929 228.516Z" fill="#D6D8E5"/>
<path id="Vector_3" d="M10.9929 238.813L2.07251 233.664V223.367L10.9929 228.516V238.813Z" fill="#B1B6C4"/>
<path id="Vector_4" d="M19.9133 233.664L10.9929 238.813V228.516L19.9133 223.367V233.664Z" fill="#C4C7D6"/>
<g id="Men_5">
<path id="Vector_5" d="M22.9792 230.447C23.7505 230.662 24.5756 230.562 25.2736 230.17C25.8282 230.17 28.8336 228.904 29.2421 229.983C29.6001 230.926 28.2991 231.804 27.6032 231.97C26.0905 232.338 24.9609 233.095 24.3508 233.226C24.1184 233.309 23.8691 233.334 23.6248 233.299C23.3804 233.264 23.1484 233.17 22.9489 233.024C22.5152 232.57 22.5556 230.987 22.9792 230.447Z" fill="#38226D"/>
<path id="Vector_6" d="M24.3508 232.938C24.9609 232.807 26.0854 232.051 27.6033 231.683C28.1832 231.542 29.1866 230.906 29.2875 230.145C29.4236 231.017 28.2487 231.789 27.6033 231.945C26.0905 232.313 24.9609 233.069 24.3508 233.201C24.1184 233.284 23.8691 233.309 23.6248 233.274C23.3804 233.239 23.1484 233.144 22.9489 232.999C22.8528 232.897 22.785 232.772 22.7523 232.636C22.9766 232.807 23.238 232.924 23.5156 232.977C23.7932 233.029 24.0792 233.016 24.3508 232.938Z" fill="#9C73FF"/>
<path id="Vector_7" d="M17.5634 227.538C18.3348 227.753 19.1598 227.653 19.8578 227.26C20.4125 227.26 23.3876 225.995 23.8213 227.074C24.1793 228.017 22.8783 228.894 22.1875 229.061C20.6747 229.429 19.5452 230.185 18.935 230.316C18.7026 230.399 18.4534 230.425 18.209 230.39C17.9647 230.354 17.7326 230.26 17.5332 230.114C17.0995 229.686 17.1449 228.102 17.5634 227.538Z" fill="#38226D"/>
<path id="Vector_8" d="M18.935 230.054C19.5451 229.923 20.6697 229.166 22.1875 228.798C22.7674 228.657 23.7709 228.022 23.8717 227.26C24.0079 228.133 22.8329 228.904 22.1875 229.061C20.6747 229.429 19.5451 230.185 18.935 230.316C18.7026 230.399 18.4534 230.425 18.209 230.39C17.9647 230.354 17.7326 230.26 17.5331 230.114C17.4382 230.014 17.3705 229.891 17.3365 229.756C17.5616 229.927 17.8233 230.042 18.1007 230.094C18.3781 230.145 18.6637 230.132 18.935 230.054Z" fill="#9C73FF"/>
<path id="Vector_9" d="M9.12711 223.801C11.4719 224.81 13.6655 224.991 15.4858 224.023L17.3516 222.944C17.4625 225.354 17.5684 227.669 17.5684 227.669C17.5684 227.669 19.0005 228.753 20.0897 227.785C20.0897 227.785 20.3217 224.406 20.5587 221.078L22.5152 219.949C22.4681 220.126 22.4427 220.309 22.4396 220.493C22.4396 221.124 22.8934 230.518 22.8934 230.518C22.8934 230.518 24.3356 231.375 25.45 230.412C25.45 230.412 26.2014 219.525 26.3728 217.805C26.5645 215.849 24.3961 214.886 23.0195 215.385L20.9218 216.167L21.0226 214.956C21.2193 213 19.0459 212.037 17.6743 212.536C16.4238 212.995 7.97236 216.162 7.97236 216.162C8.02494 216.975 8.12428 217.785 8.26987 218.587L4.93166 218.305C4.75517 221.426 6.78734 222.772 9.12711 223.801ZM14.9564 218.39L17.1902 217.105C17.153 217.262 17.1294 217.422 17.1196 217.584L14.9564 218.39Z" fill="#6889CA"/>
<path id="Vector_10" d="M3.12646 208.764C3.12646 208.764 3.39877 212.914 3.94337 213.514C4.48797 214.114 6.33357 214.523 6.33357 214.523L7.75054 216.832C7.75054 216.832 6.45459 209.43 6.1722 209.268C5.88982 209.107 3.12646 208.764 3.12646 208.764Z" fill="#FFCEA9"/>
<path id="&#60;&#208;&#154;&#208;&#190;&#208;&#189;&#209;&#130;&#209;&#131;&#209;&#128;&#62;" d="M5.85449 204.15C5.51087 203.99 5.12053 203.96 4.75663 204.067C4.39274 204.174 4.08027 204.409 3.87778 204.73C3.37352 205.592 2.81379 208.562 2.76337 209.067C2.97296 209.35 3.2506 209.575 3.57058 209.722C3.89055 209.87 4.24251 209.934 4.59383 209.909L5.85449 204.15Z" fill="#EDEDED"/>
<path id="&#60;&#208;&#154;&#208;&#190;&#208;&#189;&#209;&#130;&#209;&#131;&#209;&#128;&#62;_2" d="M6.35372 204.226C7.06977 204.261 7.60429 204.443 7.69506 204.226C7.77194 203.856 7.82583 203.482 7.85642 203.106C7.77574 202.894 7.70514 202.673 7.70514 202.673C6.80252 202.118 6.52013 201.16 6.39911 200.01C6.1974 198.069 7.24626 196.374 9.18263 196.173C11.0081 195.981 12.3494 197.262 12.7125 199.022C12.9041 199.889 13.2873 201.543 12.7679 202.96C12.4805 203.757 12.1073 204.392 11.7594 204.513C11.3981 204.506 11.0377 204.475 10.6803 204.422C10.6803 204.422 10.5845 204.962 10.5189 205.305C10.4534 205.648 10.4735 205.834 11.1644 206.258C11.8552 206.681 10.1256 207.554 8.99605 207.468C7.86651 207.382 6.59577 206.702 6.24783 205.955C5.82929 205.138 5.85955 204.18 6.35372 204.226Z" fill="#FFCEA9"/>
<g id="&#60;&#208;&#147;&#209;&#128;&#209;&#131;&#208;&#191;&#208;&#191;&#208;&#176;&#62;">
<g id="&#60;&#208;&#147;&#209;&#128;&#209;&#131;&#208;&#191;&#208;&#191;&#208;&#176;&#62;_2">
<g id="&#60;&#208;&#147;&#209;&#128;&#209;&#131;&#208;&#191;&#208;&#191;&#208;&#176;&#62;_3">
<path id="&#60;&#208;&#154;&#208;&#190;&#208;&#189;&#209;&#130;&#209;&#131;&#209;&#128;&#62;_3" d="M24.5373 216.908C24.5369 217.01 24.5097 217.111 24.4584 217.199C24.4071 217.288 24.3335 217.361 24.2449 217.412L18.7736 220.569C18.6849 220.621 18.5839 220.648 18.4812 220.648C18.3784 220.648 18.2774 220.621 18.1887 220.569L10.5239 216.141C10.4347 216.091 10.3605 216.018 10.309 215.929C10.2576 215.84 10.2308 215.74 10.2315 215.637V215.597L24.5373 216.908Z" fill="#E5E5E5"/>
<path id="&#60;&#208;&#154;&#208;&#190;&#208;&#189;&#209;&#130;&#209;&#131;&#209;&#128;&#62;_4" d="M24.2448 217.412L18.7736 220.569C18.6855 220.622 18.5842 220.65 18.4811 220.649V216.908H24.5323C24.5324 217.01 24.5059 217.11 24.4555 217.198C24.4051 217.287 24.3325 217.36 24.2448 217.412Z" fill="#E5E5E5"/>
<g id="&#60;&#208;&#147;&#209;&#128;&#209;&#131;&#208;&#191;&#208;&#191;&#208;&#176;&#62;_4">
<path id="&#60;&#208;&#154;&#208;&#190;&#208;&#189;&#209;&#130;&#209;&#131;&#209;&#128;&#62;_5" d="M18.6879 220.281C18.6262 220.318 18.5556 220.338 18.4837 220.338C18.4118 220.338 18.3412 220.318 18.2795 220.281L10.3071 215.683C10.2062 215.622 10.2062 215.526 10.3071 215.471L16.1767 212.077L24.5373 216.908L18.6879 220.281Z" fill="#F4F4F4"/>
</g>
<g id="&#60;&#208;&#147;&#209;&#128;&#209;&#131;&#208;&#191;&#208;&#191;&#208;&#176;&#62;_5">
<path id="&#60;&#208;&#154;&#208;&#190;&#208;&#189;&#209;&#130;&#209;&#131;&#209;&#128;&#62;_6" d="M13.5798 216.908L13.6201 216.928L16.1767 218.406L17.5786 217.594L17.6189 217.574L15.022 216.076L13.5798 216.908Z" fill="#BFBFBF"/>
<path id="&#60;&#208;&#154;&#208;&#190;&#208;&#189;&#209;&#130;&#209;&#131;&#209;&#128;&#62;_7" d="M13.6201 216.928L16.1767 218.406L17.5786 217.594L15.022 216.121L13.6201 216.928Z" fill="#E5E5E5"/>
</g>
<path id="Vector_11" d="M22.369 217.145L22.7371 217.357C22.7549 217.366 22.7748 217.371 22.7951 217.371C22.8154 217.371 22.8353 217.366 22.8531 217.357L23.2061 217.155C23.2414 217.155 23.2464 217.105 23.2061 217.089L22.838 216.873C22.8198 216.864 22.8 216.86 22.78 216.86C22.7599 216.86 22.7401 216.864 22.722 216.873L22.369 217.079C22.3438 217.099 22.3387 217.13 22.369 217.145Z" fill="#3A2C6D"/>
<path id="Vector_12" d="M21.8496 216.832L22.2177 217.044C22.2355 217.054 22.2555 217.059 22.2757 217.059C22.296 217.059 22.3159 217.054 22.3337 217.044L22.6867 216.842C22.722 216.842 22.722 216.792 22.6867 216.777L22.3186 216.565C22.3008 216.555 22.2809 216.55 22.2606 216.55C22.2403 216.55 22.2204 216.555 22.2026 216.565L21.8496 216.767C21.8244 216.797 21.8194 216.832 21.8496 216.832Z" fill="#3A2C6D"/>
<path id="Vector_13" d="M21.3252 216.545L21.6933 216.757C21.7123 216.765 21.733 216.77 21.7538 216.77C21.7747 216.77 21.7954 216.765 21.8144 216.757L22.1623 216.555C22.1976 216.555 22.2026 216.504 22.1623 216.484L21.7942 216.273C21.7764 216.263 21.7565 216.258 21.7362 216.258C21.7159 216.258 21.696 216.263 21.6782 216.273L21.3252 216.474C21.3 216.494 21.295 216.525 21.3252 216.545Z" fill="#3A2C6D"/>
<path id="Vector_14" d="M20.8058 216.242L21.1739 216.454C21.1921 216.463 21.2119 216.467 21.2319 216.467C21.252 216.467 21.2718 216.463 21.2899 216.454L21.6429 216.252C21.6782 216.252 21.6832 216.202 21.6429 216.182L21.2748 215.97C21.2558 215.961 21.2351 215.957 21.2143 215.957C21.1934 215.957 21.1728 215.961 21.1538 215.97L20.8058 216.172C20.7806 216.192 20.7756 216.222 20.8058 216.242Z" fill="#3A2C6D"/>
<path id="Vector_15" d="M20.2814 215.94L20.6546 216.151C20.6723 216.161 20.6923 216.166 20.7125 216.166C20.7328 216.166 20.7527 216.161 20.7705 216.151L21.1185 215.95C21.1538 215.95 21.1588 215.899 21.1185 215.884L20.7504 215.667C20.7322 215.659 20.7124 215.654 20.6924 215.654C20.6723 215.654 20.6525 215.659 20.6344 215.667L20.2814 215.874C20.2562 215.894 20.2511 215.925 20.2814 215.94Z" fill="#3A2C6D"/>
<path id="Vector_16" d="M19.762 215.637L20.1301 215.854C20.1482 215.863 20.168 215.867 20.1881 215.867C20.2081 215.867 20.2279 215.863 20.2461 215.854L20.5991 215.647C20.6344 215.647 20.6394 215.597 20.5991 215.582L20.231 215.37C20.2123 215.36 20.1915 215.355 20.1704 215.355C20.1494 215.355 20.1286 215.36 20.1099 215.37L19.762 215.572C19.7368 215.592 19.7317 215.622 19.762 215.637Z" fill="#3A2C6D"/>
<path id="Vector_17" d="M19.2426 215.319L19.6107 215.531C19.6289 215.54 19.6487 215.544 19.6687 215.544C19.6888 215.544 19.7086 215.54 19.7267 215.531L20.0797 215.33C20.115 215.33 20.115 215.279 20.0797 215.259L19.7116 215.047C19.6934 215.039 19.6736 215.034 19.6536 215.034C19.6335 215.034 19.6137 215.039 19.5956 215.047L19.2426 215.249C19.2123 215.289 19.2123 215.319 19.2426 215.319Z" fill="#3A2C6D"/>
<path id="Vector_18" d="M18.7182 215.037L19.0863 215.249C19.1041 215.259 19.124 215.264 19.1443 215.264C19.1645 215.264 19.1845 215.259 19.2023 215.249L19.5552 215.047C19.5905 215.047 19.5956 214.997 19.5552 214.982L19.1871 214.765C19.169 214.756 19.1492 214.752 19.1291 214.752C19.1091 214.752 19.0893 214.756 19.0712 214.765L18.7182 214.972C18.693 214.992 18.6879 215.022 18.7182 215.037Z" fill="#3A2C6D"/>
<path id="Vector_19" d="M18.1988 214.735L18.5669 214.946C18.5847 214.956 18.6046 214.961 18.6249 214.961C18.6452 214.961 18.6651 214.956 18.6829 214.946L19.0359 214.745C19.0712 214.745 19.0712 214.694 19.0359 214.679L18.6577 214.462C18.6399 214.452 18.62 214.447 18.5997 214.447C18.5794 214.447 18.5595 214.452 18.5417 214.462L18.1887 214.664C18.1534 214.689 18.1534 214.719 18.1988 214.735Z" fill="#3A2C6D"/>
<path id="Vector_20" d="M17.6744 214.437L18.0425 214.649C18.0615 214.657 18.0821 214.662 18.103 214.662C18.1239 214.662 18.1445 214.657 18.1635 214.649L18.5114 214.447C18.5467 214.447 18.5518 214.397 18.5114 214.376L18.1534 214.16C18.1356 214.15 18.1157 214.145 18.0954 214.145C18.0752 214.145 18.0552 214.15 18.0374 214.16L17.6844 214.361C17.6491 214.387 17.6491 214.417 17.6744 214.437Z" fill="#3A2C6D"/>
<path id="Vector_21" d="M17.1449 214.134L17.513 214.346C17.5311 214.355 17.5509 214.359 17.571 214.359C17.591 214.359 17.6108 214.355 17.629 214.346L17.982 214.145C18.0173 214.145 18.0223 214.094 17.982 214.074L17.6492 213.857C17.6302 213.848 17.6095 213.844 17.5886 213.844C17.5678 213.844 17.5471 213.848 17.5281 213.857L17.1802 214.059C17.1449 214.084 17.1449 214.114 17.1449 214.134Z" fill="#3A2C6D"/>
<path id="Vector_22" d="M16.6406 213.832L17.0138 214.044C17.0316 214.053 17.0515 214.058 17.0718 214.058C17.092 214.058 17.112 214.053 17.1298 214.044L17.4827 213.842C17.513 213.842 17.518 213.792 17.4827 213.776L17.1146 213.56C17.0965 213.551 17.0767 213.547 17.0566 213.547C17.0366 213.547 17.0168 213.551 16.9986 213.56L16.6457 213.766C16.6053 213.807 16.6053 213.807 16.6406 213.832Z" fill="#3A2C6D"/>
<path id="Vector_23" d="M16.1364 213.529L16.5045 213.746C16.5226 213.755 16.5424 213.759 16.5625 213.759C16.5825 213.759 16.6023 213.755 16.6204 213.746L16.9734 213.539C17.0087 213.539 17.0138 213.489 16.9734 213.474L16.6053 213.262C16.5866 213.252 16.5659 213.247 16.5448 213.247C16.5237 213.247 16.503 213.252 16.4843 213.262L16.1364 213.464C16.0859 213.484 16.0809 213.514 16.1364 213.529Z" fill="#3A2C6D"/>
<path id="Vector_24" d="M15.3396 213.086L15.9598 213.444C15.978 213.452 15.9978 213.457 16.0178 213.457C16.0379 213.457 16.0577 213.452 16.0758 213.444L16.4288 213.242C16.4641 213.242 16.4641 213.191 16.4288 213.171L15.8136 212.798C15.7955 212.79 15.7757 212.785 15.7556 212.785C15.7356 212.785 15.7158 212.79 15.6976 212.798L15.3446 213.005C15.3393 213.005 15.334 213.005 15.329 213.007C15.324 213.009 15.3194 213.011 15.3154 213.015C15.3114 213.018 15.3081 213.023 15.3058 213.027C15.3035 213.032 15.3021 213.037 15.3018 213.043C15.3014 213.048 15.3022 213.053 15.3039 213.058C15.3056 213.063 15.3083 213.068 15.3118 213.072C15.3153 213.076 15.3196 213.079 15.3243 213.082C15.3291 213.084 15.3343 213.085 15.3396 213.086Z" fill="#3A2C6D"/>
<path id="Vector_25" d="M21.0882 216.989L21.4614 217.2C21.4791 217.21 21.4991 217.215 21.5193 217.215C21.5396 217.215 21.5596 217.21 21.5773 217.2L21.9303 216.999C21.9606 216.999 21.9656 216.948 21.9303 216.933L21.5622 216.721C21.5444 216.712 21.5245 216.706 21.5042 216.706C21.484 216.706 21.464 216.712 21.4462 216.721L21.0933 216.923C21.063 216.943 21.063 216.973 21.0882 216.989Z" fill="#3A2C6D"/>
<path id="Vector_26" d="M20.5688 216.686L20.9369 216.903C20.9551 216.911 20.9749 216.916 20.9949 216.916C21.015 216.916 21.0348 216.911 21.0529 216.903L21.4059 216.696C21.4412 216.696 21.4462 216.646 21.4059 216.631L21.0378 216.419C21.0191 216.409 20.9983 216.404 20.9773 216.404C20.9562 216.404 20.9354 216.409 20.9168 216.419L20.5688 216.62C20.5436 216.641 20.5386 216.671 20.5688 216.686Z" fill="#3A2C6D"/>
<path id="Vector_27" d="M20.0444 216.388L20.4125 216.6C20.4315 216.609 20.4522 216.613 20.473 216.613C20.4939 216.613 20.5145 216.609 20.5335 216.6L20.8815 216.399C20.9168 216.399 20.9218 216.348 20.8815 216.328L20.5134 216.116C20.4952 216.108 20.4754 216.103 20.4554 216.103C20.4353 216.103 20.4155 216.108 20.3974 216.116L20.0444 216.318C20.0192 216.328 20.0141 216.368 20.0444 216.388Z" fill="#3A2C6D"/>
<path id="Vector_28" d="M19.525 216.086L19.8931 216.298C19.9113 216.306 19.9311 216.311 19.9511 216.311C19.9712 216.311 19.991 216.306 20.0091 216.298L20.3621 216.096C20.3974 216.096 20.3974 216.046 20.3621 216.025L19.994 215.814C19.9758 215.805 19.956 215.801 19.936 215.801C19.9159 215.801 19.8961 215.805 19.878 215.814L19.525 216.015C19.4948 216.036 19.4948 216.066 19.525 216.086Z" fill="#3A2C6D"/>
<path id="Vector_29" d="M19.0056 215.783L19.3737 216C19.3918 216.009 19.4116 216.013 19.4317 216.013C19.4517 216.013 19.4715 216.009 19.4897 216L19.8427 215.793C19.878 215.793 19.883 215.743 19.8427 215.728L19.4745 215.516C19.4559 215.506 19.4351 215.501 19.414 215.501C19.393 215.501 19.3722 215.506 19.3535 215.516L19.0056 215.718C18.9804 215.738 18.9753 215.768 19.0056 215.783Z" fill="#3A2C6D"/>
<path id="Vector_30" d="M18.4812 215.486L18.8493 215.698C18.8683 215.706 18.8889 215.711 18.9098 215.711C18.9307 215.711 18.9513 215.706 18.9703 215.698L19.3182 215.496C19.3535 215.496 19.3586 215.446 19.3182 215.425L18.9501 215.214C18.932 215.205 18.9122 215.201 18.8921 215.201C18.8721 215.201 18.8523 215.205 18.8342 215.214L18.4812 215.415C18.456 215.435 18.4509 215.466 18.4812 215.486Z" fill="#3A2C6D"/>
<path id="Vector_31" d="M17.9618 215.183L18.3299 215.395C18.348 215.404 18.3678 215.408 18.3879 215.408C18.4079 215.408 18.4277 215.404 18.4459 215.395L18.7989 215.193C18.8341 215.193 18.8341 215.143 18.7989 215.123L18.4307 214.911C18.4126 214.902 18.3928 214.898 18.3728 214.898C18.3527 214.898 18.3329 214.902 18.3148 214.911L17.9618 215.113C17.9315 215.133 17.9315 215.163 17.9618 215.183Z" fill="#3A2C6D"/>
<path id="Vector_32" d="M17.4373 214.881L17.8055 215.093C17.8232 215.102 17.8432 215.107 17.8634 215.107C17.8837 215.107 17.9037 215.102 17.9214 215.093L18.2744 214.891C18.3097 214.891 18.3148 214.84 18.2744 214.825L17.9063 214.608C17.8873 214.6 17.8667 214.595 17.8458 214.595C17.8249 214.595 17.8043 214.6 17.7853 214.608L17.4373 214.815C17.4121 214.815 17.4071 214.866 17.4373 214.881Z" fill="#3A2C6D"/>
<path id="Vector_33" d="M16.9129 214.578L17.2861 214.79C17.3039 214.8 17.3238 214.805 17.3441 214.805C17.3643 214.805 17.3843 214.8 17.402 214.79L17.755 214.588C17.7853 214.588 17.7903 214.538 17.755 214.523L17.3869 214.311C17.3691 214.301 17.3492 214.296 17.3289 214.296C17.3087 214.296 17.2887 214.301 17.2709 214.311L16.918 214.513C16.8877 214.533 16.8877 214.563 16.9129 214.578Z" fill="#3A2C6D"/>
<path id="Vector_34" d="M16.3935 214.276L16.7616 214.492C16.7798 214.501 16.7996 214.505 16.8196 214.505C16.8397 214.505 16.8595 214.501 16.8776 214.492L17.2306 214.286C17.2659 214.286 17.2709 214.235 17.2306 214.22L16.8625 214.008C16.8438 213.999 16.823 213.994 16.802 213.994C16.7809 213.994 16.7602 213.999 16.7415 214.008L16.3935 214.21C16.3683 214.23 16.3633 214.26 16.3935 214.276Z" fill="#3A2C6D"/>
<path id="Vector_35" d="M15.8691 213.978L16.2372 214.19C16.2562 214.199 16.2769 214.203 16.2977 214.203C16.3186 214.203 16.3392 214.199 16.3582 214.19L16.7062 213.988C16.7415 213.988 16.7465 213.938 16.7062 213.918L16.3381 213.706C16.3199 213.697 16.3001 213.693 16.2801 213.693C16.26 213.693 16.2402 213.697 16.2221 213.706L15.8691 213.908C15.8439 213.928 15.8389 213.958 15.8691 213.978Z" fill="#3A2C6D"/>
<path id="Vector_36" d="M15.3497 213.676L15.7178 213.887C15.736 213.896 15.7558 213.9 15.7758 213.9C15.7959 213.9 15.8157 213.896 15.8338 213.887L16.1868 213.686C16.2221 213.686 16.2221 213.635 16.1868 213.615L15.8187 213.403C15.8005 213.395 15.7807 213.39 15.7607 213.39C15.7406 213.39 15.7208 213.395 15.7027 213.403L15.3497 213.605C15.3195 213.625 15.3195 213.655 15.3497 213.676Z" fill="#3A2C6D"/>
<path id="Vector_37" d="M21.6126 217.291L22.2329 217.649C22.251 217.658 22.2708 217.662 22.2909 217.662C22.3109 217.662 22.3307 217.658 22.3489 217.649L22.7018 217.447C22.7371 217.447 22.7422 217.397 22.7018 217.377L22.0816 217.019C22.0626 217.01 22.042 217.006 22.0211 217.006C22.0002 217.006 21.9796 217.01 21.9606 217.019L21.6126 217.226C21.5874 217.246 21.5824 217.276 21.6126 217.291Z" fill="#3A2C6D"/>
<path id="Vector_38" d="M15.3043 213.101L15.6724 213.312C15.7027 213.312 15.7027 213.358 15.6724 213.378L15.2993 213.59C15.2833 213.6 15.265 213.605 15.2463 213.605C15.2276 213.605 15.2093 213.6 15.1934 213.59H15.1631C15.1474 213.582 15.1301 213.578 15.1127 213.578C15.0952 213.578 15.078 213.582 15.0623 213.59L14.6689 213.817C14.6514 213.824 14.6325 213.828 14.6135 213.828C14.5944 213.828 14.5755 213.824 14.558 213.817L14.326 213.681C14.2958 213.681 14.2958 213.635 14.326 213.615L14.6941 213.403L14.7698 213.363L14.8253 213.328L14.8807 213.297L15.1934 213.116C15.2089 213.104 15.2273 213.096 15.2468 213.093C15.2663 213.091 15.2861 213.093 15.3043 213.101Z" fill="#3A2C6D"/>
<path id="Vector_39" d="M20.347 218.31L20.7151 218.522C20.7329 218.531 20.7528 218.536 20.7731 218.536C20.7933 218.536 20.8133 218.531 20.831 218.522L21.184 218.32C21.2193 218.32 21.2193 218.269 21.184 218.254L20.8159 218.042C20.7981 218.033 20.7782 218.028 20.7579 218.028C20.7377 218.028 20.7177 218.033 20.6999 218.042L20.347 218.244C20.3217 218.264 20.3167 218.295 20.347 218.31Z" fill="#3A2C6D"/>
<path id="Vector_40" d="M19.8276 218.012L20.1957 218.224C20.2138 218.233 20.2336 218.237 20.2537 218.237C20.2737 218.237 20.2935 218.233 20.3117 218.224L20.6646 218.022C20.6999 218.022 20.6999 217.972 20.6646 217.952L20.2965 217.74C20.2784 217.731 20.2586 217.727 20.2385 217.727C20.2185 217.727 20.1987 217.731 20.1805 217.74L19.8276 217.942C19.7973 217.962 19.7973 217.992 19.8276 218.012Z" fill="#3A2C6D"/>
<path id="Vector_41" d="M19.3031 217.71L19.6763 217.921C19.6941 217.931 19.714 217.936 19.7343 217.936C19.7545 217.936 19.7745 217.931 19.7922 217.921L20.1452 217.72C20.1755 217.72 20.1805 217.669 20.1452 217.654L19.7771 217.442C19.7593 217.433 19.7394 217.428 19.7191 217.428C19.6989 217.428 19.6789 217.433 19.6611 217.442L19.3082 217.649C19.2779 217.664 19.2779 217.695 19.3031 217.71Z" fill="#3A2C6D"/>
<path id="Vector_42" d="M14.8757 215.153L15.2438 215.365C15.2625 215.375 15.2833 215.38 15.3043 215.38C15.3254 215.38 15.3461 215.375 15.3648 215.365L15.7128 215.163C15.7481 215.163 15.7531 215.113 15.7128 215.098L15.3447 214.881C15.3265 214.872 15.3067 214.868 15.2867 214.868C15.2666 214.868 15.2468 214.872 15.2287 214.881L14.8757 215.087C14.8505 215.108 14.8454 215.138 14.8757 215.153Z" fill="#3A2C6D"/>
<path id="Vector_43" d="M14.3563 214.856L14.7244 215.067C14.7425 215.076 14.7623 215.08 14.7824 215.08C14.8024 215.08 14.8222 215.076 14.8404 215.067L15.1934 214.861C15.2287 214.861 15.2337 214.815 15.1934 214.795L14.8253 214.583C14.8066 214.574 14.7858 214.568 14.7647 214.568C14.7437 214.568 14.7229 214.574 14.7042 214.583L14.3563 214.785C14.3311 214.815 14.326 214.815 14.3563 214.856Z" fill="#3A2C6D"/>
<path id="Vector_44" d="M13.8369 214.553L14.2051 214.765C14.2228 214.774 14.2428 214.78 14.263 214.78C14.2833 214.78 14.3032 214.774 14.321 214.765L14.674 214.563C14.7093 214.563 14.7144 214.513 14.674 214.498L14.3059 214.281C14.2869 214.272 14.2663 214.268 14.2454 214.268C14.2245 214.268 14.2039 214.272 14.1849 214.281L13.8369 214.487C13.8117 214.508 13.8067 214.538 13.8369 214.553Z" fill="#3A2C6D"/>
<path id="Vector_45" d="M13.3175 214.25L13.6856 214.467C13.7038 214.476 13.7236 214.48 13.7436 214.48C13.7637 214.48 13.7835 214.476 13.8016 214.467L14.1546 214.26C14.1899 214.26 14.1899 214.21 14.1546 214.195L13.7814 213.983C13.7636 213.973 13.7437 213.968 13.7234 213.968C13.7032 213.968 13.6832 213.973 13.6655 213.983L13.3125 214.185C13.2923 214.205 13.2873 214.235 13.3175 214.25Z" fill="#3A2C6D"/>
<path id="Vector_46" d="M18.6577 217.336L19.1619 217.629C19.1809 217.638 19.2016 217.642 19.2224 217.642C19.2433 217.642 19.264 217.638 19.283 217.629L19.6309 217.427C19.6662 217.427 19.6712 217.377 19.6309 217.357L19.1266 217.069C19.1089 217.06 19.0889 217.054 19.0686 217.054C19.0484 217.054 19.0284 217.06 19.0107 217.069L18.6577 217.271C18.6274 217.286 18.6224 217.336 18.6577 217.336Z" fill="#3A2C6D"/>
<path id="Vector_47" d="M15.3951 215.456L15.8994 215.743C15.9172 215.753 15.9371 215.758 15.9574 215.758C15.9776 215.758 15.9976 215.753 16.0154 215.743L16.3683 215.541C16.4036 215.541 16.4087 215.491 16.3683 215.471L15.8641 215.183C15.8459 215.175 15.8261 215.17 15.8061 215.17C15.786 215.17 15.7662 215.175 15.7481 215.183L15.3951 215.385C15.3699 215.405 15.3649 215.435 15.3951 215.456Z" fill="#3A2C6D"/>
<path id="Vector_48" d="M16.0506 215.824L18.5013 217.241C18.5194 217.249 18.5393 217.254 18.5593 217.254C18.5793 217.254 18.5991 217.249 18.6173 217.241L18.9703 217.039C19.0056 217.039 19.0056 216.989 18.9703 216.968L16.5246 215.556C16.5059 215.547 16.4852 215.542 16.4641 215.542C16.443 215.542 16.4223 215.547 16.4036 215.556L16.0556 215.758C16.0254 215.783 16.0203 215.824 16.0506 215.824Z" fill="#3A2C6D"/>
<path id="Vector_49" d="M20.4427 217.2L20.8108 217.412C20.8286 217.422 20.8486 217.427 20.8688 217.427C20.8891 217.427 20.909 217.422 20.9268 217.412L21.2798 217.21C21.3151 217.21 21.3201 217.16 21.2798 217.14L20.9117 216.928C20.8927 216.919 20.872 216.915 20.8512 216.915C20.8303 216.915 20.8097 216.919 20.7907 216.928L20.4427 217.13C20.4175 217.15 20.4125 217.18 20.4427 217.2Z" fill="#3A2C6D"/>
<path id="Vector_50" d="M19.9234 216.898L20.2915 217.11C20.3093 217.119 20.3292 217.124 20.3495 217.124C20.3697 217.124 20.3897 217.119 20.4075 217.11L20.7604 216.908C20.7957 216.908 20.7957 216.857 20.7604 216.842L20.3923 216.631C20.3745 216.621 20.3546 216.616 20.3343 216.616C20.3141 216.616 20.2941 216.621 20.2764 216.631L19.9234 216.832C19.8982 216.832 19.8931 216.883 19.9234 216.898Z" fill="#3A2C6D"/>
<path id="Vector_51" d="M19.3989 216.6L19.7721 216.812C19.7902 216.821 19.81 216.825 19.8301 216.825C19.8501 216.825 19.8699 216.821 19.8881 216.812L20.2411 216.61C20.2713 216.61 20.2764 216.56 20.2411 216.54L19.8729 216.328C19.8548 216.319 19.835 216.315 19.815 216.315C19.7949 216.315 19.7751 216.319 19.757 216.328L19.404 216.53C19.3737 216.55 19.3737 216.58 19.3989 216.6Z" fill="#3A2C6D"/>
<path id="Vector_52" d="M18.8795 216.298L19.2477 216.51C19.2654 216.519 19.2854 216.524 19.3056 216.524C19.3259 216.524 19.3459 216.519 19.3636 216.51L19.7166 216.308C19.7519 216.308 19.757 216.257 19.7166 216.237L19.3485 216.025C19.3304 216.017 19.3106 216.012 19.2905 216.012C19.2705 216.012 19.2507 216.017 19.2325 216.025L18.8795 216.232C18.8543 216.252 18.8493 216.283 18.8795 216.298Z" fill="#3A2C6D"/>
<path id="Vector_53" d="M18.3601 215.995L18.7282 216.207C18.746 216.217 18.766 216.222 18.7862 216.222C18.8065 216.222 18.8264 216.217 18.8442 216.207L19.1972 216C19.2325 216 19.2376 215.95 19.1972 215.935L18.8291 215.723C18.8104 215.713 18.7897 215.708 18.7686 215.708C18.7475 215.708 18.7268 215.713 18.7081 215.723L18.3601 215.925C18.3349 215.95 18.3299 215.98 18.3601 215.995Z" fill="#3A2C6D"/>
<path id="Vector_54" d="M17.8407 215.698L18.2089 215.909C18.227 215.918 18.2468 215.922 18.2668 215.922C18.2869 215.922 18.3067 215.918 18.3248 215.909L18.6778 215.708C18.7081 215.708 18.7131 215.657 18.6778 215.637L18.3097 215.425C18.2916 215.417 18.2718 215.412 18.2517 215.412C18.2317 215.412 18.2119 215.417 18.1937 215.425L17.8407 215.627C17.8105 215.647 17.8105 215.677 17.8407 215.698Z" fill="#3A2C6D"/>
<path id="Vector_55" d="M17.3163 215.395L17.6844 215.607C17.7031 215.617 17.7239 215.622 17.7449 215.622C17.766 215.622 17.7868 215.617 17.8054 215.607L18.1534 215.405C18.1887 215.405 18.1937 215.355 18.1534 215.34L17.7853 215.123C17.7671 215.114 17.7473 215.11 17.7273 215.11C17.7072 215.11 17.6874 215.114 17.6693 215.123L17.3163 215.33C17.2911 215.35 17.2861 215.38 17.3163 215.395Z" fill="#3A2C6D"/>
<path id="Vector_56" d="M16.7969 215.093L17.1449 215.319C17.163 215.328 17.1828 215.332 17.2029 215.332C17.2229 215.332 17.2427 215.328 17.2609 215.319L17.6138 215.113C17.6491 215.113 17.6542 215.062 17.6138 215.047L17.2457 214.835C17.227 214.826 17.2063 214.821 17.1852 214.821C17.1641 214.821 17.1434 214.826 17.1247 214.835L16.7768 215.037C16.7717 215.047 16.7667 215.077 16.7969 215.093Z" fill="#3A2C6D"/>
<path id="Vector_57" d="M16.2776 214.815L16.6457 215.027C16.6638 215.036 16.6836 215.04 16.7037 215.04C16.7237 215.04 16.7435 215.036 16.7617 215.027L17.1146 214.825C17.1499 214.825 17.1499 214.775 17.1146 214.755L16.7465 214.543C16.7284 214.534 16.7086 214.53 16.6885 214.53C16.6685 214.53 16.6487 214.534 16.6306 214.543L16.2776 214.745C16.2473 214.745 16.2473 214.775 16.2776 214.815Z" fill="#3A2C6D"/>
<path id="Vector_58" d="M15.7531 214.492L16.1213 214.704C16.1399 214.714 16.1607 214.719 16.1818 214.719C16.2028 214.719 16.2236 214.714 16.2423 214.704L16.5902 214.503C16.6255 214.503 16.6306 214.452 16.5902 214.437L16.2221 214.22C16.204 214.212 16.1842 214.207 16.1641 214.207C16.1441 214.207 16.1243 214.212 16.1061 214.22L15.7531 214.427C15.7279 214.447 15.7229 214.477 15.7531 214.492Z" fill="#3A2C6D"/>
<path id="Vector_59" d="M15.2337 214.19L15.6018 214.407C15.62 214.415 15.6398 214.42 15.6598 214.42C15.6799 214.42 15.6997 214.415 15.7178 214.407L16.0708 214.2C16.1061 214.2 16.1111 214.15 16.0708 214.134L15.7027 213.923C15.684 213.913 15.6633 213.908 15.6422 213.908C15.6211 213.908 15.6004 213.913 15.5817 213.923L15.2337 214.124C15.2085 214.145 15.2035 214.175 15.2337 214.19Z" fill="#3A2C6D"/>
<path id="Vector_60" d="M14.7143 213.892L15.0825 214.104C15.1006 214.113 15.1204 214.117 15.1404 214.117C15.1605 214.117 15.1803 214.113 15.1984 214.104L15.5514 213.902C15.5867 213.902 15.5867 213.852 15.5514 213.832L15.1833 213.62C15.1652 213.612 15.1454 213.607 15.1253 213.607C15.1053 213.607 15.0855 213.612 15.0673 213.62L14.7143 213.822C14.6841 213.842 14.6841 213.872 14.7143 213.892Z" fill="#3A2C6D"/>
<path id="Vector_61" d="M20.9621 217.503L21.7286 217.942C21.7467 217.95 21.7665 217.955 21.7866 217.955C21.8066 217.955 21.8264 217.95 21.8446 217.942L22.1925 217.74C22.2278 217.74 22.2329 217.689 22.1925 217.669L21.4311 217.231C21.4133 217.221 21.3934 217.216 21.3731 217.216C21.3528 217.216 21.3329 217.221 21.3151 217.231L20.9621 217.432C20.9369 217.452 20.9319 217.483 20.9621 217.503Z" fill="#3A2C6D"/>
<path id="Vector_62" d="M20.1957 217.639L20.5638 217.856C20.5819 217.864 20.6017 217.869 20.6218 217.869C20.6418 217.869 20.6616 217.864 20.6798 217.856L21.0327 217.649C21.068 217.649 21.0731 217.599 21.0327 217.584L20.6646 217.372C20.6468 217.362 20.6269 217.357 20.6066 217.357C20.5864 217.357 20.5664 217.362 20.5487 217.372L20.1957 217.573C20.1705 217.594 20.1705 217.624 20.1957 217.639Z" fill="#3A2C6D"/>
<path id="Vector_63" d="M19.6662 217.336L20.0343 217.548C20.0524 217.557 20.0723 217.561 20.0923 217.561C20.1123 217.561 20.1321 217.557 20.1503 217.548L20.5033 217.347C20.5386 217.347 20.5436 217.296 20.5033 217.276L20.1301 217.064C20.112 217.056 20.0922 217.051 20.0721 217.051C20.0521 217.051 20.0323 217.056 20.0141 217.064L19.6662 217.266C19.6662 217.291 19.6662 217.336 19.6662 217.336Z" fill="#3A2C6D"/>
<path id="Vector_64" d="M19.1619 217.039L19.53 217.251C19.5478 217.26 19.5677 217.266 19.588 217.266C19.6083 217.266 19.6282 217.26 19.646 217.251L19.999 217.049C20.0292 217.049 20.0343 216.999 19.999 216.984L19.6309 216.767C19.6127 216.758 19.5929 216.754 19.5729 216.754C19.5528 216.754 19.533 216.758 19.5149 216.767L19.1619 216.973C19.1266 216.994 19.1266 217.024 19.1619 217.039Z" fill="#3A2C6D"/>
<path id="Vector_65" d="M18.6577 216.736L19.0258 216.953C19.0448 216.962 19.0654 216.966 19.0863 216.966C19.1071 216.966 19.1278 216.962 19.1468 216.953L19.4947 216.747C19.53 216.747 19.5351 216.696 19.4947 216.681L19.1266 216.469C19.1088 216.459 19.0889 216.454 19.0686 216.454C19.0484 216.454 19.0284 216.459 19.0106 216.469L18.6577 216.671C18.6072 216.691 18.6022 216.721 18.6577 216.736Z" fill="#3A2C6D"/>
<path id="Vector_66" d="M18.1131 216.439L18.4812 216.651C18.4993 216.659 18.5191 216.664 18.5392 216.664C18.5592 216.664 18.579 216.659 18.5972 216.651L18.9501 216.449C18.9854 216.449 18.9905 216.399 18.9501 216.378L18.582 216.167C18.563 216.158 18.5424 216.154 18.5215 216.154C18.5006 216.154 18.48 216.158 18.461 216.167L18.1131 216.368C18.0879 216.388 18.0828 216.419 18.1131 216.439Z" fill="#3A2C6D"/>
<path id="Vector_67" d="M17.5937 216.136L17.9618 216.348C17.9796 216.358 17.9995 216.363 18.0198 216.363C18.04 216.363 18.06 216.358 18.0778 216.348L18.4307 216.146C18.466 216.146 18.466 216.096 18.4307 216.081L18.0626 215.869C18.0449 215.859 18.0249 215.854 18.0046 215.854C17.9844 215.854 17.9644 215.859 17.9467 215.869L17.5937 216.071C17.5634 216.091 17.5634 216.121 17.5937 216.136Z" fill="#3A2C6D"/>
<path id="Vector_68" d="M17.0692 215.824L17.4374 216.036C17.4564 216.044 17.477 216.049 17.4979 216.049C17.5187 216.049 17.5394 216.044 17.5584 216.036L17.9063 215.834C17.9416 215.834 17.9467 215.783 17.9063 215.763L17.5382 215.551C17.5204 215.542 17.5005 215.537 17.4802 215.537C17.46 215.537 17.44 215.542 17.4222 215.551L17.0692 215.753C17.044 215.788 17.039 215.824 17.0692 215.824Z" fill="#3A2C6D"/>
<path id="Vector_69" d="M16.5498 215.536L16.9179 215.748C16.9357 215.758 16.9557 215.763 16.9759 215.763C16.9962 215.763 17.0161 215.758 17.0339 215.748L17.3869 215.546C17.4222 215.546 17.4272 215.496 17.3869 215.476L17.0188 215.264C16.9998 215.255 16.9792 215.251 16.9583 215.251C16.9374 215.251 16.9168 215.255 16.8978 215.264L16.5498 215.471C16.5246 215.486 16.5196 215.516 16.5498 215.536Z" fill="#3A2C6D"/>
<path id="Vector_70" d="M16.0305 215.234L16.3986 215.446C16.4166 215.454 16.4365 215.459 16.4566 215.459C16.4767 215.459 16.4965 215.454 16.5146 215.446L16.8675 215.239C16.9028 215.239 16.9028 215.188 16.8675 215.173L16.4944 214.961C16.4766 214.952 16.4567 214.947 16.4364 214.947C16.4161 214.947 16.3962 214.952 16.3784 214.961L16.0254 215.163C16.0053 215.188 16.0002 215.219 16.0305 215.234Z" fill="#3A2C6D"/>
<path id="Vector_71" d="M15.5111 214.936L15.8792 215.148C15.8973 215.157 15.9171 215.161 15.9372 215.161C15.9572 215.161 15.977 215.157 15.9952 215.148L16.3482 214.946C16.3784 214.946 16.3835 214.896 16.3482 214.876L15.9801 214.664C15.9619 214.655 15.9421 214.651 15.9221 214.651C15.902 214.651 15.8822 214.655 15.8641 214.664L15.5111 214.866C15.4808 214.886 15.4808 214.916 15.5111 214.936Z" fill="#3A2C6D"/>
<path id="Vector_72" d="M14.9867 214.634L15.3548 214.845C15.3735 214.855 15.3942 214.86 15.4153 214.86C15.4364 214.86 15.4571 214.855 15.4758 214.845L15.8237 214.644C15.859 214.644 15.8641 214.593 15.8237 214.578L15.4556 214.361C15.4375 214.353 15.4177 214.348 15.3976 214.348C15.3776 214.348 15.3578 214.353 15.3396 214.361L14.9867 214.568C14.9615 214.588 14.9564 214.619 14.9867 214.634Z" fill="#3A2C6D"/>
<path id="Vector_73" d="M13.8218 213.963L14.8303 214.548C14.8485 214.556 14.8683 214.561 14.8883 214.561C14.9084 214.561 14.9282 214.556 14.9463 214.548L15.2993 214.341C15.3346 214.341 15.3396 214.291 15.2993 214.276L14.2908 213.691C14.2721 213.681 14.2513 213.676 14.2303 213.676C14.2092 213.676 14.1884 213.681 14.1697 213.691L13.8218 213.892C13.7966 213.913 13.7916 213.943 13.8218 213.963Z" fill="#3A2C6D"/>
<path id="Vector_74" d="M20.7151 217.942L21.2193 218.234C21.2375 218.243 21.2573 218.247 21.2773 218.247C21.2974 218.247 21.3172 218.243 21.3353 218.234L21.6883 218.027C21.7236 218.027 21.7286 217.977 21.6883 217.962L21.184 217.669C21.1659 217.661 21.1461 217.656 21.126 217.656C21.106 217.656 21.0862 217.661 21.0681 217.669L20.7151 217.876C20.6747 217.896 20.6747 217.926 20.7151 217.942Z" fill="#3A2C6D"/>
</g>
<g id="&#60;&#208;&#147;&#209;&#128;&#209;&#131;&#208;&#191;&#208;&#191;&#208;&#176;&#62;_6">
<g id="&#60;&#208;&#147;&#209;&#128;&#209;&#131;&#208;&#191;&#208;&#191;&#208;&#176;&#62;_7">
<g id="&#60;&#208;&#147;&#209;&#128;&#209;&#131;&#208;&#191;&#208;&#191;&#208;&#176;&#62;_8">
<path id="&#60;&#208;&#154;&#208;&#190;&#208;&#189;&#209;&#130;&#209;&#131;&#209;&#128;&#62;_8" d="M24.5376 216.908L16.177 212.077V205.522L16.2426 205.37L16.3081 205.34C16.3959 205.288 16.4961 205.261 16.5981 205.261C16.7001 205.261 16.8002 205.288 16.888 205.34L24.5376 209.752C24.625 209.805 24.6973 209.878 24.7477 209.967C24.798 210.055 24.8247 210.155 24.8251 210.257V216.429C24.7696 216.726 24.7091 216.802 24.5376 216.908Z" fill="#E5E5E5"/>
<path id="&#60;&#208;&#154;&#208;&#190;&#208;&#189;&#209;&#130;&#209;&#131;&#209;&#128;&#62;_9" d="M23.7712 210.534L16.177 205.738V205.522L16.2426 205.37L16.3081 205.34C16.3959 205.288 16.4961 205.261 16.5981 205.261C16.7001 205.261 16.8002 205.288 16.888 205.34L24.5376 209.752C24.6318 209.806 24.7074 209.887 24.7545 209.984L23.7712 210.534Z" fill="#E5E5E5"/>
<path id="&#60;&#208;&#154;&#208;&#190;&#208;&#189;&#209;&#130;&#209;&#131;&#209;&#128;&#62;_10" d="M16.3683 205.355L24.3961 209.989C24.4384 210.014 24.4735 210.05 24.4982 210.092C24.5229 210.134 24.5364 210.182 24.5373 210.231V216.908L16.1767 212.077V205.466C16.1761 205.444 16.1816 205.421 16.1927 205.401C16.2037 205.382 16.2199 205.365 16.2395 205.354C16.2591 205.342 16.2815 205.337 16.3041 205.337C16.3268 205.337 16.3489 205.343 16.3683 205.355Z" fill="#DCEEFF"/>
<path id="&#60;&#208;&#154;&#208;&#190;&#208;&#189;&#209;&#130;&#209;&#131;&#209;&#128;&#62;_11" d="M16.3683 205.355L24.3961 209.989C24.4384 210.014 24.4735 210.05 24.4982 210.092C24.5229 210.134 24.5364 210.182 24.5373 210.231V216.908L16.1767 212.077V205.466C16.1761 205.444 16.1816 205.421 16.1927 205.401C16.2037 205.382 16.2199 205.365 16.2395 205.354C16.2591 205.342 16.2815 205.337 16.3041 205.337C16.3268 205.337 16.3489 205.343 16.3683 205.355Z" fill="#F4F4F4"/>
<path id="&#60;&#208;&#154;&#208;&#190;&#208;&#189;&#209;&#130;&#209;&#131;&#209;&#128;&#62;_12" d="M24.5373 216.908V216.666L16.1767 211.84V212.077L24.5373 216.908Z" fill="#DBDBDB"/>
</g>
<path id="&#60;&#208;&#154;&#208;&#190;&#208;&#189;&#209;&#130;&#209;&#131;&#209;&#128;&#62;_13" d="M16.3935 211.729V205.703L16.4943 205.759V211.679L16.3935 211.729Z" fill="#1E3779"/>
<path id="&#60;&#208;&#154;&#208;&#190;&#208;&#189;&#209;&#130;&#209;&#131;&#209;&#128;&#62;_14" d="M16.4944 205.759V211.679L24.2701 216.151V210.247L16.4944 205.759Z" fill="#3A2C6D"/>
<path id="&#60;&#208;&#154;&#208;&#190;&#208;&#189;&#209;&#130;&#209;&#131;&#209;&#128;&#62;_15" d="M16.3935 211.729L24.2701 216.273V216.151L16.4943 211.679L16.3935 211.729Z" fill="#031F60"/>
</g>
</g>
</g>
</g>
<path id="&#60;&#208;&#154;&#208;&#190;&#208;&#189;&#209;&#130;&#209;&#131;&#209;&#128;&#62;_16" d="M7.3925 204.311C7.1908 204.816 7.7001 205.411 9.04648 205.824C10.3929 206.238 10.5139 205.703 10.5139 205.703C11.4119 206.106 12.2872 206.557 13.136 207.055C13.9429 207.619 14.3009 209.258 14.4118 212.022C14.5379 215.219 14.548 219.959 14.4421 220.781C14.4421 220.781 12.9293 222.293 10.998 222.127C9.06665 221.961 5.80408 220.256 5.01743 218.935C5.01743 216.131 5.36537 215.672 4.91154 214.059C3.87276 210.363 3.32311 208.85 3.83242 206.389C4.24591 204.372 4.84094 204.115 5.63263 204.135C6.22194 204.163 6.80938 204.222 7.3925 204.311Z" fill="#F4F4F4"/>
<path id="&#60;&#208;&#154;&#208;&#190;&#208;&#189;&#209;&#130;&#209;&#131;&#209;&#128;&#62;_17" d="M17.5937 215.456C16.0053 215.859 15.6321 214.856 15.4254 214.029C14.9211 212.012 14.6488 210.206 14.2706 209.067C13.8269 207.725 13.3629 207.508 12.7074 207.246C11.946 206.939 11.2854 207.589 11.5375 209.299C11.852 211.284 12.3396 213.238 12.9948 215.138C13.2268 215.993 13.6748 216.775 14.2958 217.407C15.1178 218.073 16.3532 218.042 18.219 217.579C19.3132 217.206 20.3756 216.746 21.3958 216.202C21.7992 216.015 22.1119 215.889 22.9086 215.526C23.6979 215.181 24.3905 214.648 24.9256 213.973C25.329 213.383 25.3845 213.106 25.3038 212.965C25.2232 212.823 25.0114 212.833 24.7996 213.081C24.4866 213.498 24.1005 213.855 23.6599 214.134C23.6599 214.134 24.1642 213.63 24.4315 213.282C24.6764 212.975 24.8782 212.636 25.0315 212.274C25.1778 211.931 24.8803 211.467 24.6533 211.709C24.4264 211.951 24.3256 212.213 23.9121 212.717C23.6961 212.98 23.4489 213.216 23.1759 213.418C23.4317 213.074 23.6594 212.71 23.8566 212.329C24.0335 212.023 24.1193 211.674 24.1037 211.321C24.1037 211.144 23.8364 210.932 23.5994 211.27C23.3538 211.752 23.0489 212.201 22.6918 212.607C22.3287 212.985 22.0211 213.202 22.011 213.111C22.0009 213.02 22.2329 212.798 22.359 212.364C22.485 211.931 22.359 211.462 22.1169 211.411C21.8749 211.361 21.9202 211.371 21.7286 211.785C21.4594 212.205 21.2185 212.643 21.0075 213.096C20.8831 213.518 20.6582 213.904 20.352 214.22C19.9688 214.619 19.1065 215.077 17.5937 215.456Z" fill="#FFCEA9"/>
<path id="&#60;&#208;&#154;&#208;&#190;&#208;&#189;&#209;&#130;&#209;&#131;&#209;&#128;&#62;_18" d="M12.1023 206.974C13.1612 206.818 13.9126 207.297 14.3815 208.9C14.8505 210.504 15.1732 211.825 15.1732 211.825C14.7546 212.431 14.1192 212.854 13.3982 213.005C12.1325 213.312 11.6736 212.707 11.6736 212.707C11.6736 212.707 11.3207 211.023 11.1038 209.878C10.887 208.734 10.8113 207.166 12.1023 206.974Z" fill="#EDEDED"/>
<path id="Vector_75" d="M12.6469 198.749C12.6469 198.749 14.321 196.203 10.6903 195.684C8.07321 195.31 6.38898 196.99 6.19736 198.815C6.01078 200.56 7.08486 202.37 7.85637 203.091C8.61868 203.285 9.42595 203.188 10.1205 202.819C10.1638 202.343 10.1806 201.865 10.1709 201.387C10.1709 201.387 8.89515 198.704 12.6469 198.749Z" fill="#3A2C6D"/>
</g>
<path id="Vector_76" d="M19.9133 230.977V223.327L13.8369 226.872L16.1767 231.708L19.9133 230.977Z" fill="#C4C7D6"/>
<path id="Vector_77" d="M15.9296 223.766L18.2593 222.414L19.9082 223.367L17.4928 224.739L15.9296 223.766Z" fill="#D6D8E5"/>
<g id="monitor">
<path id="Vector_78" opacity="0.4" d="M111.996 189.098L83.2938 172.528C81.2213 171.333 81.4835 169.245 83.8737 167.863L102.471 157.128L138.672 178.044L120.08 188.78C117.684 190.162 114.069 190.308 111.996 189.098Z" fill="#D6D8E5"/>
<path id="Vector_79" d="M114.094 187.883L85.3865 171.308C83.319 170.112 83.5813 168.03 85.9664 166.648L104.564 155.912L140.764 176.809L122.167 187.55C119.777 188.926 116.162 189.098 114.094 187.883Z" fill="#B1B4C4"/>
<path id="Vector_80" d="M140.764 176.809V175.715L139.095 176.678L140.764 176.809Z" fill="#B1B4C4"/>
<path id="Vector_81" d="M83.9897 169.336V168.221L85.7092 168.932L83.9897 169.336Z" fill="#B1B4C4"/>
<path id="Vector_82" d="M114.094 186.788L85.3865 170.213C83.319 169.018 83.5813 166.931 85.9664 165.554L104.564 154.808L140.764 175.71L122.167 186.445C119.777 187.832 116.162 187.978 114.094 186.788Z" fill="#D6D8E5"/>
<path id="Vector_83" d="M104.664 154.864L100.182 139.998L136.776 160.99L140.764 175.715L104.664 154.864Z" fill="#9EA1AF"/>
<path id="Vector_84" d="M139.705 176.325L140.764 175.715L139.176 174.474L139.705 176.325Z" fill="#9EA1AF"/>
<path id="Vector_85" d="M103.51 155.423L99.0268 140.558L135.621 161.55L139.706 176.325L103.51 155.423Z" fill="#B1B4C4"/>
<path id="Vector_86" d="M196.405 201.377L54.7527 119.596C52.7659 118.446 51.1573 115.37 51.1573 112.722V3.15163C51.1573 0.504261 52.7659 -0.716051 54.7527 0.433665L196.405 82.1945C198.391 83.3392 200 86.4152 200 89.0676V198.679C200 201.306 198.391 202.526 196.405 201.377Z" fill="#C4C7D6"/>
<path id="Vector_87" d="M197.131 202.506L198.704 201.604L198.023 196.949L197.131 202.506Z" fill="#C4C7D6"/>
<path id="Vector_88" d="M50.9001 1.10433L52.4431 0.216833L54.6619 1.48253C54.6619 1.48253 52.2969 1.84055 52.2414 1.82543C52.1859 1.8103 50.9001 1.10433 50.9001 1.10433Z" fill="#B1B4C4"/>
<path id="Vector_89" d="M195.104 202.128L53.4517 120.347C51.4649 119.197 49.8513 116.121 49.8513 113.474V3.90298C49.8513 1.25057 51.4649 0.0352991 53.4517 1.17997L195.099 82.961C197.085 84.1107 198.699 87.1867 198.699 89.8391V199.405C198.704 202.057 197.09 203.273 195.104 202.128Z" fill="#E4E7F2"/>
<path id="Vector_90" d="M194.857 202.269L53.2046 120.488C51.2178 119.338 49.6092 116.262 49.6092 113.615V4.03409C49.6092 1.38672 51.2178 0.166405 53.2046 1.31612L194.857 83.1073C196.843 84.2519 198.452 87.3279 198.452 89.9803V199.551C198.452 202.209 196.843 203.419 194.857 202.269Z" fill="#201D38"/>
<path id="Vector_91" opacity="0.3" d="M196.505 195.608L51.4044 111.835L51.48 4.48288C51.48 3.38359 52.2515 2.93984 53.2046 3.47436L194.857 85.2705C195.359 85.5974 195.776 86.038 196.076 86.5567C196.376 87.0755 196.549 87.6576 196.581 88.2558L196.505 195.608Z" fill="#3A3756"/>
<path id="Vector_92" d="M139.489 71.6454L129.872 66.0935V62.6242L139.489 68.1761V71.6454Z" fill="#A298E2"/>
<path id="Vector_93" d="M161.716 84.4889L141.289 72.6842V69.2149L161.716 81.0196V84.4889Z" fill="#F4CE2C"/>
<path id="Vector_94" d="M139.489 82.7442L129.872 77.1973V73.728L139.489 79.2749V82.7442Z" fill="#A298E2"/>
<path id="Vector_95" d="M148.056 87.7767L141.289 83.788V80.3187L148.056 84.3074V87.7767Z" fill="#4D3BFF"/>
<path id="Vector_96" d="M139.489 88.2961L129.872 82.7442V79.2749L139.489 84.8268V88.2961Z" fill="#A298E2"/>
<path id="Vector_97" d="M152.705 95.9256L141.289 89.3349V85.8656L152.705 92.4563V95.9256Z" fill="#4D3BFF"/>
<path id="Vector_98" d="M139.489 93.843L129.872 88.2961V84.8268L139.489 90.3787V93.843Z" fill="#A298E2"/>
<path id="Vector_99" d="M171.398 112.228L141.289 94.8868V91.4175L171.398 108.764V112.228Z" fill="#FF8657"/>
<path id="Vector_100" d="M139.489 77.1973L129.872 71.6454V68.1761L139.489 73.728V77.1973Z" fill="#A298E2"/>
<path id="Vector_101" d="M178.796 99.9143L141.289 78.2361V74.7668L178.796 96.445V99.9143Z" fill="#A298E2"/>
<path id="Vector_102" d="M139.489 99.3949L129.872 93.843V90.3737L139.489 95.9256V99.3949Z" fill="#A298E2"/>
<path id="Vector_103" d="M173.733 119.515L141.289 100.439V96.9694L173.733 116.046V119.515Z" fill="#C33AFC"/>
<path id="Vector_104" d="M139.489 110.499L129.872 104.947V101.477L139.489 107.029V110.499Z" fill="#A298E2"/>
<path id="Vector_105" d="M179.144 133.392L141.289 111.537V108.068L179.144 129.923V133.392Z" fill="#A298E2"/>
<path id="Vector_106" d="M139.489 116.046L129.872 110.499V107.029L139.489 112.576V116.046Z" fill="#A298E2"/>
<path id="Vector_107" d="M152.705 123.68L141.289 117.084V113.62L152.705 120.211V123.68Z" fill="#C33AFC"/>
<path id="Vector_108" d="M139.489 121.597L129.872 116.046V112.576L139.489 118.128V121.597Z" fill="#A298E2"/>
<path id="Vector_109" d="M164.616 136.166L141.289 122.636V119.167L164.616 132.696V136.166Z" fill="#4D3BFF"/>
<path id="Vector_110" d="M139.489 104.947L129.872 99.3949V95.9256L139.489 101.477V104.947Z" fill="#A298E2"/>
<path id="Vector_111" d="M145.494 108.416L141.289 105.986V102.516L145.494 104.947V108.416Z" fill="#4D3BFF"/>
<path id="Vector_112" d="M139.489 127.149L129.872 121.597V118.128L139.489 123.68V127.149Z" fill="#A298E2"/>
<path id="Vector_113" d="M156.346 136.861L141.289 128.188V124.719L156.346 133.392V136.861Z" fill="#C33AFC"/>
<path id="Vector_114" d="M139.489 138.248L129.872 132.696V129.227L139.489 134.779V138.248Z" fill="#A298E2"/>
<path id="Vector_115" d="M163.26 151.813L141.289 139.287V135.818L163.26 148.344V151.813Z" fill="#FF8657"/>
<path id="Vector_116" d="M139.489 143.8L129.872 138.248V134.779L139.489 140.331V143.8Z" fill="#A298E2"/>
<path id="Vector_117" d="M144.032 146.574L141.289 144.839V141.37L144.032 143.104V146.574Z" fill="#A298E2"/>
<path id="Vector_118" d="M139.489 149.347L129.872 143.8V140.331L139.489 145.878V149.347Z" fill="#A298E2"/>
<path id="Vector_119" d="M153.89 157.647L141.289 150.391V146.921L153.89 154.178V157.647Z" fill="#F4CE2C"/>
<path id="Vector_120" d="M139.489 132.696L129.872 127.149V123.675L139.489 129.227V132.696Z" fill="#A298E2"/>
<path id="Vector_121" d="M158.822 143.8L141.289 133.735V130.271L158.822 140.331V143.8Z" fill="#4D3BFF"/>
<path id="Vector_122" d="M77.2931 36.9573L67.6769 31.4054V27.9361L77.2931 33.488V36.9573Z" fill="#A298E2"/>
<path id="Vector_123" d="M119.954 61.5854L79.0933 37.9961V34.5268L119.954 58.1161V61.5854Z" fill="#C33AFC"/>
<path id="Vector_124" d="M77.2931 48.0561L67.6769 42.5042V39.0348L77.2931 44.5868V48.0561Z" fill="#A298E2"/>
<path id="Vector_125" d="M106.132 64.7068L79.0933 49.0949V45.6255L106.132 61.2375V64.7068Z" fill="#F4CE2C"/>
<path id="Vector_126" d="M77.2931 53.608L67.6769 48.0561V44.5868L77.2931 50.1387V53.608Z" fill="#A298E2"/>
<path id="Vector_127" d="M112.743 74.0709L79.0933 54.6468V51.1774L112.743 70.6016V74.0709Z" fill="#FF8657"/>
<path id="Vector_128" d="M77.2931 59.1549L67.6769 53.608V50.1387L77.2931 55.6855V59.1549Z" fill="#A298E2"/>
<path id="Vector_129" d="M102.526 73.728L79.0933 60.1987V56.7294L102.526 70.2587V73.728Z" fill="#A298E2"/>
<path id="Vector_130" d="M77.2931 42.5042L67.6769 36.9522V33.488L77.2931 39.0348V42.5042Z" fill="#A298E2"/>
<path id="Vector_131" d="M99.5209 55.3426L79.0933 43.548V40.0787L99.5209 51.8733V55.3426Z" fill="#4D3BFF"/>
<path id="Vector_132" d="M77.2931 64.7068L67.6769 59.1549V55.6855L77.2931 61.2375V64.7068Z" fill="#A298E2"/>
<path id="Vector_133" d="M91.1099 72.6842L79.0933 65.7456V62.2762L91.1099 69.2149V72.6842Z" fill="#C33AFC"/>
<path id="Vector_134" d="M77.2931 75.8056L67.6769 70.2536V66.7894L77.2931 72.3362V75.8056Z" fill="#A298E2"/>
<path id="Vector_135" d="M116.948 98.704L79.0933 76.8494V73.3801L116.948 95.2347V98.704Z" fill="#F4CE2C"/>
<path id="Vector_136" d="M77.2931 81.3575L67.6769 75.8056V72.3362L77.2931 77.8882V81.3575Z" fill="#A298E2"/>
<path id="Vector_137" d="M90.5098 88.9869L79.0933 82.3962V78.9269L90.5098 85.5176V88.9869Z" fill="#FF8657"/>
<path id="Vector_138" d="M77.2931 86.9094L67.6769 81.3575V77.8882L77.2931 83.4401V86.9094Z" fill="#A298E2"/>
<path id="Vector_139" d="M112.743 107.372L79.0933 87.9482V84.4788L112.743 103.908V107.372Z" fill="#A298E2"/>
<path id="Vector_140" d="M77.2931 70.2587L67.6769 64.7068V61.2375L77.2931 66.7894V70.2587Z" fill="#A298E2"/>
<path id="Vector_141" d="M110.937 89.6828L79.0933 71.2975V67.8281L110.937 86.2135V89.6828Z" fill="#4D3BFF"/>
<path id="Vector_142" d="M77.2931 92.4563L67.6769 86.9043V83.4401L77.2931 88.9869V92.4563Z" fill="#A298E2"/>
<path id="Vector_143" d="M83.2989 95.9256L79.0933 93.5001V90.0308L83.2989 92.4563V95.9256Z" fill="#C33AFC"/>
<path id="Vector_144" d="M77.2931 103.56L67.6769 98.0082V94.5388L77.2931 100.091V103.56Z" fill="#A298E2"/>
<path id="Vector_145" d="M86.9043 109.107L79.0933 104.599V101.13L86.9043 105.638V109.107Z" fill="#F4CE2C"/>
<path id="Vector_146" d="M77.2931 109.107L67.6769 103.56V100.091L77.2931 105.638V109.107Z" fill="#A298E2"/>
<path id="Vector_147" d="M99.5209 121.945L79.0933 110.151V106.681L99.5209 118.476V121.945Z" fill="#FF8657"/>
<path id="Vector_148" d="M77.2931 114.659L67.6769 109.107V105.638L77.2931 111.19V114.659Z" fill="#A298E2"/>
<path id="Vector_149" d="M111.537 134.431L79.0933 115.698V112.228L111.537 130.962V134.431Z" fill="#A298E2"/>
<path id="Vector_150" d="M77.2931 98.0082L67.6769 92.4563V88.9869L77.2931 94.5389V98.0082Z" fill="#A298E2"/>
<path id="Vector_151" d="M119.954 122.636L79.0933 99.0469V95.5776L119.954 119.167V122.636Z" fill="#4D3BFF"/>
</g>
<path id="Vector_152" opacity="0.4" d="M151.152 252.131C162.804 252.131 172.251 246.676 172.251 239.948C172.251 233.219 162.804 227.765 151.152 227.765C139.5 227.765 130.054 233.219 130.054 239.948C130.054 246.676 139.5 252.131 151.152 252.131Z" fill="#D6D8E5"/>
<path id="Vector_153" d="M174.323 238.218V205.738L132.212 206.797L132.303 236.751C131.516 240.356 133.513 244.123 138.309 246.891C146.548 251.646 159.906 251.651 168.146 246.891C172.286 244.486 174.343 241.349 174.323 238.218Z" fill="#A6CE28"/>
<path id="Vector_154" d="M153.225 217.906C164.877 217.906 174.323 212.452 174.323 205.723C174.323 198.995 164.877 193.54 153.225 193.54C141.572 193.54 132.126 198.995 132.126 205.723C132.126 212.452 141.572 217.906 153.225 217.906Z" fill="#BCD64D"/>
<path id="Vector_155" d="M170.99 205.738C170.99 207.72 169.341 209.803 166.477 211.462C163.35 213.257 159.079 214.366 154.581 214.548C154.132 214.548 153.684 214.578 153.23 214.578C148.238 214.578 143.412 213.439 139.978 211.462C137.114 209.803 135.465 207.72 135.465 205.738C135.465 203.757 137.114 201.674 139.978 200.015C143.412 198.033 148.238 196.894 153.225 196.894C153.679 196.894 154.132 196.894 154.581 196.924C159.079 197.106 163.35 198.215 166.477 200.015C169.341 201.659 170.99 203.721 170.99 205.738Z" fill="#28221C"/>
<path id="Vector_156" opacity="0.07" d="M170.99 205.738C170.99 207.72 169.341 209.803 166.477 211.462C163.35 213.257 159.079 214.366 154.581 214.548C150.083 214.366 145.807 213.257 142.686 211.462C139.816 209.773 138.167 207.705 138.167 205.738C138.167 203.772 139.811 201.674 142.676 200.015C145.802 198.215 150.078 197.106 154.576 196.924C159.074 197.106 163.345 198.215 166.472 200.015C169.341 201.659 170.99 203.721 170.99 205.738Z" fill="white"/>
<path id="Vector_157" d="M171.237 220.771L166.759 218.179L164.581 219.439L166.759 220.7V221.527L170.96 223.947L170.834 224.724C171.444 225.228 173.617 229.262 173.617 229.262L173.768 229.121V239.574C173.768 242.318 172.16 241.39 171.474 240.991L166.759 238.268L164.581 239.524L166.759 240.78V241.607L171.474 244.33C171.95 244.615 172.458 244.845 172.987 245.015L172.704 246.326L175.145 244.95H175.18H175.216C176.224 244.355 176.653 242.908 176.653 241.284V230.316C176.673 225.682 173.118 222.046 171.237 220.771Z" fill="#8DA01F"/>
<path id="Vector_158" d="M169.296 245.605L164.581 242.882V239.524L169.296 242.247C169.981 242.64 171.59 243.573 171.59 240.825V229.908C171.59 227.326 169.255 225.541 168.857 225.258L164.581 222.788V219.439L169.059 222.031C170.944 223.307 174.474 226.948 174.474 231.582V242.509C174.474 245.459 173.128 247.814 169.296 245.605Z" fill="#99B524"/>
<path id="Vector_159" opacity="0.4" d="M20.8613 187.59C28.8847 187.59 35.389 183.833 35.389 179.199C35.389 174.565 28.8847 170.808 20.8613 170.808C12.8378 170.808 6.3335 174.565 6.3335 179.199C6.3335 183.833 12.8378 187.59 20.8613 187.59Z" fill="#D6D8E5"/>
<path id="Vector_160" d="M22.9338 186.037C30.9572 186.037 37.4615 182.28 37.4615 177.646C37.4615 173.012 30.9572 169.255 22.9338 169.255C14.9103 169.255 8.40601 173.012 8.40601 177.646C8.40601 182.28 14.9103 186.037 22.9338 186.037Z" fill="#D6D8E5"/>
<path id="Vector_161" d="M3.48444 148.964L8.56739 178.226H37.4262L42.3831 149.176L3.48444 148.964Z" fill="#D6D8E5"/>
<path id="Vector_162" d="M22.9338 159.841C33.6865 159.841 42.4033 154.808 42.4033 148.601C42.4033 142.393 33.6865 137.361 22.9338 137.361C12.1811 137.361 3.46429 142.393 3.46429 148.601C3.46429 154.808 12.1811 159.841 22.9338 159.841Z" fill="#E4E6EF"/>
<path id="Vector_163" d="M22.9338 157.36C18.1635 157.36 13.7159 156.311 10.408 154.4C7.56897 152.766 5.94525 150.648 5.94525 148.601C5.94525 146.553 7.56897 144.435 10.408 142.802C13.7109 140.891 18.1635 139.842 22.9338 139.842C27.7041 139.842 32.1567 140.891 35.4596 142.802C38.2986 144.435 39.9224 146.553 39.9224 148.601C39.9224 150.648 38.3239 152.791 35.4596 154.4C32.1567 156.321 27.7344 157.36 22.9338 157.36Z" fill="#28221C"/>
<path id="Vector_164" d="M31.3096 139.746C31.5851 135.964 30.983 132.171 29.5502 128.66C28.1174 125.15 25.8927 122.018 23.0498 119.51L22.9943 119.454V119.56C20.1487 122.069 17.922 125.202 16.4883 128.714C15.0545 132.227 14.4526 136.023 14.7295 139.806L3.59033 138.732C8.29004 156.437 23.0498 154.914 23.0498 154.914V154.879C24.1642 154.964 37.9305 155.675 42.4336 138.692L31.3096 139.746Z" fill="#99B524"/>
<path id="Vector_165" d="M23.0498 154.914C23.0498 154.914 22.0412 141.128 3.54495 131.844C3.52983 131.844 -0.837076 154.748 23.0498 154.914Z" fill="#A6CE28"/>
<path id="Vector_166" d="M22.9338 154.914C22.9338 154.914 23.9423 141.128 42.4386 131.844C42.4386 131.844 46.8206 154.748 22.9338 154.914Z" fill="#A6CE28"/>
</g>
</g>
</svg>
