<svg width="19" height="13" viewBox="0 0 19 13" fill="none" xmlns="http://www.w3.org/2000/svg">
<path id="Vector" d="M9.16667 0.249985C5 0.249985 1.44167 2.84165 0 6.49998C1.44167 10.1583 5 12.75 9.16667 12.75C13.3333 12.75 16.8917 10.1583 18.3333 6.49998C16.8917 2.84165 13.3333 0.249985 9.16667 0.249985ZM9.16667 10.6667C6.86667 10.6667 5 8.79998 5 6.49998C5 4.19998 6.86667 2.33332 9.16667 2.33332C11.4667 2.33332 13.3333 4.19998 13.3333 6.49998C13.3333 8.79998 11.4667 10.6667 9.16667 10.6667ZM9.16667 3.99998C7.78333 3.99998 6.66667 5.11665 6.66667 6.49998C6.66667 7.88332 7.78333 8.99998 9.16667 8.99998C10.55 8.99998 11.6667 7.88332 11.6667 6.49998C11.6667 5.11665 10.55 3.99998 9.16667 3.99998Z" fill="white"/>
</svg>
